<?xml version="1.0" encoding="UTF-8" standalone="no"?>
<svg
   xmlns:dc="http://purl.org/dc/elements/1.1/"
   xmlns:cc="http://creativecommons.org/ns#"
   xmlns:rdf="http://www.w3.org/1999/02/22-rdf-syntax-ns#"
   xmlns:svg="http://www.w3.org/2000/svg"
   xmlns="http://www.w3.org/2000/svg"
   xmlns:sodipodi="http://sodipodi.sourceforge.net/DTD/sodipodi-0.dtd"
   xmlns:inkscape="http://www.inkscape.org/namespaces/inkscape"
   width="70.264465mm"
   height="75.810898mm"
   viewBox="0 0 70.264465 75.810898"
   version="1.1"
   id="svg40"
   inkscape:version="1.0.1 (3bc2e813f5, 2020-09-07)"
   sodipodi:docname="xmas_ball_nohe.svg">
  <defs
     id="defs34" />
  <sodipodi:namedview
     id="base"
     pagecolor="#ffffff"
     bordercolor="#666666"
     borderopacity="1.0"
     inkscape:pageopacity="0.0"
     inkscape:pageshadow="2"
     inkscape:zoom="1.4"
     inkscape:cx="31.330206"
     inkscape:cy="232.99692"
     inkscape:document-units="mm"
     inkscape:current-layer="layer1"
     inkscape:document-rotation="0"
     showgrid="true"
     inkscape:window-width="2560"
     inkscape:window-height="1377"
     inkscape:window-x="-8"
     inkscape:window-y="-8"
     inkscape:window-maximized="1"
     fit-margin-top="0"
     fit-margin-left="0"
     fit-margin-right="0"
     fit-margin-bottom="0">
    <inkscape:grid
       type="xygrid"
       id="grid879"
       originx="-44.435775"
       originy="-42.363552" />
  </sodipodi:namedview>
  <metadata
     id="metadata37">
    <rdf:RDF>
      <cc:Work
         rdf:about="">
        <dc:format>image/svg+xml</dc:format>
        <dc:type
           rdf:resource="http://purl.org/dc/dcmitype/StillImage" />
        <dc:title></dc:title>
      </cc:Work>
    </rdf:RDF>
  </metadata>
  <g
     inkscape:label="Calque 1"
     inkscape:groupmode="layer"
     id="layer1"
     transform="translate(-44.435778,-42.363553)">
    <g
       id="g918">
      <path
         id="path871"
         style="fill:none;stroke:#ff0000;stroke-width:1.49812;stroke-opacity:1"
         d="m 300.62109,160.86328 a 12.479285,12.479285 0 0 0 -12.47851,12.47852 12.479285,12.479285 0 0 0 3.62109,8.79101 132.03394,132.03394 0 0 0 -123.06836,131.72852 132.03394,132.03394 0 0 0 132.03321,132.0332 132.03394,132.03394 0 0 0 132.03515,-132.0332 132.03394,132.03394 0 0 0 -123.26953,-131.74219 12.479285,12.479285 0 0 0 3.60742,-8.77734 12.479285,12.479285 0 0 0 -12.48047,-12.47852 z"
         transform="scale(0.26458333)" />
      <ellipse
         style="fill:none;fill-rule:nonzero;stroke:#ff0000;stroke-width:0.289101;stroke-opacity:1"
         id="path877"
         cx="79.542923"
         cy="45.800137"
         rx="1.8554491"
         ry="1.8554493" />
      <path
         style="fill:#000000;stroke-width:0.0848983"
         d="m 102.9171,102.01025 c -0.0479,-0.0402 -4.30318,-0.39516 -6.525935,-0.54441 -6.941982,-0.46613 -14.509794,-0.65532 -20.628505,-0.5157 -4.558936,0.10404 -10.159453,0.35884 -12.933379,0.58839 -0.254959,0.0211 -1.563909,0.12993 -2.908777,0.24185 -1.614446,0.13434 -2.464928,0.17674 -2.503236,0.12478 -0.03191,-0.0433 -0.04706,-2.685041 -0.03367,-5.870592 l 0.02434,-5.791908 0.949138,-0.04505 c 0.522025,-0.02476 2.098686,-0.06647 3.50369,-0.09265 l 2.554554,-0.0476 -0.03906,0.514374 -0.03906,0.514374 0.239222,-0.07626 c 0.320427,-0.102154 0.987877,-0.476173 0.987877,-0.553573 0,-0.08755 -0.273438,-0.306194 -0.382945,-0.306194 -0.05036,0 -0.06406,-0.03731 -0.03045,-0.08292 0.03361,-0.0456 -0.008,-0.125242 -0.09229,-0.176973 -0.18098,-0.110969 -0.09516,-0.393031 0.100439,-0.330093 0.154459,0.0497 0.156368,0.0292 0.02055,-0.220738 -0.08095,-0.148992 -0.165469,-0.190681 -0.351864,-0.173571 -0.134924,0.01239 -0.295579,0.04857 -0.357014,0.08041 -0.06273,0.03251 -0.111697,0.01813 -0.111697,-0.03277 0,-0.04985 -0.06258,-0.07051 -0.139068,-0.0459 -0.09331,0.03004 -0.139069,-0.0037 -0.139069,-0.101824 0,-0.08061 -0.05215,-0.162406 -0.115891,-0.181761 -0.09222,-0.028 -0.0925,-0.06843 -0.0013,-0.19796 0.09839,-0.139834 0.09361,-0.156034 -0.03396,-0.114985 -0.12616,0.04059 -0.132439,0.02261 -0.04173,-0.11949 0.08913,-0.139642 0.0816,-0.167276 -0.04549,-0.167276 -0.08373,0 -0.13265,-0.04374 -0.108697,-0.09718 0.167032,-0.372697 0.171953,-0.44544 0.02698,-0.398788 -0.123937,0.03988 -0.132478,0.01555 -0.05471,-0.155975 0.07088,-0.156322 0.06354,-0.203231 -0.03177,-0.203231 -0.08218,0 -0.108995,-0.06546 -0.07961,-0.194359 0.02436,-0.1069 0.0028,-0.19436 -0.04797,-0.19436 -0.06057,0 -0.06221,-0.126931 -0.0048,-0.36928 0.14393,-0.607439 0.136739,-0.602945 0.51641,-0.322631 0.190901,0.140942 0.337509,0.282179 0.325796,0.313863 -0.01171,0.03168 0.06681,0.08105 0.174497,0.10971 0.136173,0.03623 0.161223,0.07002 0.08227,0.110944 -0.0785,0.04068 -0.02052,0.114369 0.187902,0.238814 0.272237,0.162555 0.284288,0.185512 0.124455,0.237053 -0.147881,0.04768 -0.127122,0.06619 0.126272,0.112572 0.290014,0.05308 0.51011,0.190903 0.304857,0.190903 -0.054,0 -0.09819,0.035 -0.09819,0.07774 0,0.04275 0.09178,0.07774 0.203967,0.07774 0.158642,0 0.179245,0.02072 0.09271,0.09329 -0.157737,0.13227 -0.137884,0.217486 0.05099,0.218871 0.126972,0.0011 0.13477,0.0158 0.03587,0.06833 -0.106699,0.05668 -0.106699,0.07374 0,0.109506 0.103643,0.03474 0.101359,0.0572 -0.01269,0.124834 -0.118115,0.07005 -0.112295,0.08266 0.03863,0.08366 0.09773,7.65e-4 0.150247,0.02422 0.116695,0.05234 -0.03355,0.02814 -0.01452,0.09811 0.04229,0.155521 0.08172,0.08256 0.04282,0.114507 -0.186229,0.15292 -0.327057,0.05485 -0.345891,0.0924 -0.153403,0.305798 0.12548,0.139114 0.136351,0.140061 0.139069,0.01213 0.0025,-0.114546 0.03535,-0.124252 0.188373,-0.05558 0.163804,0.0735 0.185425,0.05912 0.185425,-0.123401 0,-0.174051 0.02173,-0.191489 0.137889,-0.110653 0.170711,0.118805 0.418385,0.04859 0.418385,-0.11859 0,-0.08761 0.05306,-0.110174 0.179778,-0.07645 0.123816,0.03295 0.210836,-7.64e-4 0.279553,-0.108479 0.05906,-0.09253 0.155942,-0.138254 0.237427,-0.112032 0.150148,0.04831 0.176316,-0.13406 0.05607,-0.390815 -0.07925,-0.169224 -0.660318,-0.242539 -0.783067,-0.0988 -0.057,0.06673 -0.08862,0.06482 -0.123617,-0.0075 -0.02587,-0.05345 -0.146816,-0.09719 -0.268784,-0.09719 -0.199737,0 -0.21278,-0.01981 -0.131343,-0.199418 0.122591,-0.270379 0.114287,-0.30269 -0.04865,-0.189298 -0.116187,0.08086 -0.139069,0.06963 -0.139069,-0.06822 -1e-6,-0.09075 -0.04319,-0.165001 -0.09598,-0.165001 -0.06616,0 -0.06616,-0.04672 0,-0.150377 0.129147,-0.20235 0.120879,-0.316083 -0.02298,-0.316083 -0.145829,0 -0.139052,-0.288207 0.01232,-0.523655 0.106818,-0.166148 0.100843,-0.170339 -0.13545,-0.095 -0.293558,0.09359 -0.374148,0.05748 -0.17736,-0.07948 0.186241,-0.129611 0.179474,-0.234788 -0.01511,-0.234788 -0.122287,0 -0.09827,-0.05089 0.110058,-0.23323 0.275539,-0.241163 0.25805,-0.292095 -0.05246,-0.152748 -0.216164,0.09701 -0.216876,0.09161 -0.03581,-0.271766 0.142985,-0.28696 0.142733,-0.287808 -0.06881,-0.231511 -0.187884,0.05 -0.197968,0.04201 -0.08762,-0.06948 0.142917,-0.144402 0.205773,-0.751605 0.0778,-0.751605 -0.04674,0 -0.05729,-0.09621 -0.02344,-0.213794 0.171657,-0.596319 0.249762,-0.796674 0.309801,-0.794704 0.03628,0.0011 0.337145,0.199627 0.668592,0.440969 0.384834,0.280216 0.527239,0.422549 0.394028,0.393829 -0.354871,-0.07651 -0.229601,0.101545 0.162246,0.230619 0.400478,0.131912 0.486995,0.254051 0.179954,0.254051 -0.276705,0 -0.130996,0.142064 0.290894,0.283619 0.36707,0.123158 0.409238,0.260584 0.07995,0.260584 -0.09897,0 -0.179952,0.02239 -0.179952,0.04974 0,0.09094 0.321806,0.256208 0.509919,0.261873 0.152187,0.0045 0.135568,0.02905 -0.09271,0.136588 l -0.278137,0.131002 0.231781,0.0237 c 0.539837,0.05521 0.691539,0.104357 0.551439,0.178684 -0.07382,0.03916 -0.238535,0.07227 -0.366015,0.07359 -0.184875,0.0019 -0.203637,0.01787 -0.09271,0.07896 0.07649,0.04211 0.303966,0.114803 0.505505,0.161528 l 0.366436,0.08495 -0.218031,0.137908 -0.218028,0.137905 0.2688,0.08196 0.268799,0.08195 -0.301315,0.0062 c -0.340057,0.0069 -0.37467,0.05892 -0.139069,0.208886 0.09909,0.06307 0.117132,0.104242 0.04636,0.105753 -0.192353,0.0041 -0.129955,0.157955 0.06406,0.157955 0.262485,0 0.316097,0.13023 0.07534,0.183025 -0.199055,0.04365 -0.200135,0.04891 -0.03127,0.152455 0.221676,0.13592 0.05131,0.244505 -0.275656,0.175691 -0.129214,-0.02719 -0.226512,-0.01365 -0.226512,0.03156 0,0.04358 -0.06258,0.07923 -0.139068,0.07923 -0.169805,0 -0.174739,0.208216 -0.01081,0.456148 0.105052,0.158881 0.129892,0.166119 0.181683,0.05295 0.04095,-0.08949 0.118991,-0.115397 0.245873,-0.08163 0.134292,0.03575 0.185883,0.0142 0.185883,-0.07761 0,-0.09172 0.05162,-0.113359 0.185425,-0.07775 0.111065,0.02957 0.185424,0.01398 0.185424,-0.03888 0,-0.05284 0.07436,-0.06843 0.185425,-0.03887 0.148595,0.03954 0.186012,0.01358 0.188374,-0.130813 0.0029,-0.17765 0.005,-0.177992 0.144423,-0.02468 0.133391,0.146604 0.146792,0.147619 0.234531,0.0178 0.05118,-0.07573 0.13404,-0.116446 0.184131,-0.09049 0.05009,0.02595 0.14654,0.0086 0.214333,-0.03858 0.06779,-0.04719 0.183786,-0.0663 0.25777,-0.0425 0.07508,0.02418 0.244107,-0.04861 0.382599,-0.164746 0.266504,-0.223475 0.324628,-0.362065 0.124894,-0.297796 -0.06815,0.02193 -0.163557,-0.03623 -0.213527,-0.130116 -0.08965,-0.168481 -0.09294,-0.167845 -0.436196,0.08488 -0.357325,0.263082 -0.546363,0.275789 -0.325911,0.02193 0.460863,-0.530748 1.415691,-1.420564 1.524352,-1.420564 0.182697,0 0.163411,0.07744 -0.07151,0.287127 -0.111242,0.09929 -0.253354,0.305164 -0.315805,0.45749 -0.108559,0.264793 -0.106187,0.271373 0.05399,0.149823 0.09517,-0.07222 0.191091,-0.09517 0.222071,-0.05314 0.02999,0.0407 -0.0075,0.117228 -0.08351,0.170069 -0.207727,0.144562 -0.165816,0.250453 0.05916,0.149486 0.151438,-0.06797 0.214011,-0.06571 0.269575,0.0097 0.05821,0.07898 0.128416,0.07871 0.359058,-0.0014 0.329922,-0.114592 0.325091,-0.09849 0.153381,-0.511578 -0.112428,-0.270473 -0.112332,-0.394728 6.91e-4,-0.892096 L 71.960122,84.906382 71.69703,84.63233 c -0.144711,-0.150734 -0.387822,-0.309043 -0.540257,-0.3518 -0.420635,-0.117992 -0.275573,-0.272102 0.256123,-0.272102 h 0.455837 v -0.388704 c 0,-0.280428 0.03598,-0.388717 0.129149,-0.388717 0.07103,0 0.153163,0.05248 0.182517,0.116617 0.06935,0.151533 0.33732,0.151533 0.33732,0 0,-0.151447 0.242358,-0.151447 0.311663,0 0.02934,0.06413 0.112794,0.116612 0.185424,0.116612 0.284549,0 0.317278,-0.471159 0.09894,-1.424285 l -0.145667,-0.635906 0.548946,-0.485919 0.548948,-0.485921 0.477491,0.460346 c 0.438526,0.422778 0.477493,0.49219 0.477493,0.850611 0,0.214645 -0.04172,0.411887 -0.09271,0.438314 -0.168061,0.08709 -0.09669,0.273917 0.139066,0.363988 0.205111,0.07837 0.23178,0.136325 0.23178,0.503665 0,0.317158 0.0328,0.415107 0.139071,0.415107 0.07649,0 0.139067,-0.05247 0.139067,-0.116612 0,-0.147365 0.241513,-0.153296 0.308201,-0.0075 0.02745,0.05997 0.03037,0.591505 0.0065,1.181174 -0.02389,0.589674 -0.01464,1.17907 0.02053,1.30977 0.06074,0.225798 0.06975,0.216332 0.180669,-0.189949 0.06421,-0.235175 0.164907,-1.209665 0.223785,-2.165539 l 0.107048,-1.737953 0.248809,-0.183733 c 0.136843,-0.101059 0.27914,-0.184845 0.316204,-0.186196 0.03707,-0.0014 0.131654,-0.08469 0.210189,-0.185194 0.118179,-0.151246 0.127118,-0.275188 0.05185,-0.719124 l -0.09094,-0.536388 0.514895,-0.436898 0.514895,-0.436902 0.466237,0.148556 0.466237,0.148551 -0.05728,-0.191369 c -0.09839,-0.328831 0.01467,-0.436953 0.456956,-0.436953 0.220999,0 0.432091,-0.04108 0.469095,-0.09128 0.03698,-0.05022 0.06726,-0.341049 0.06726,-0.646319 V 77.42935 l 0.496625,-0.16999 c 0.789718,-0.270309 1.435228,-0.186588 1.274215,0.165264 -0.07486,0.163579 0.395064,0.234999 1.295358,0.196875 0.378473,-0.01602 0.667911,-0.0019 0.643199,0.03182 -0.02473,0.03353 -0.261006,0.153725 -0.525104,0.26711 -0.371437,0.159466 -0.656584,0.214295 -1.259119,0.242121 l -0.77891,0.03586 0.06009,-0.251958 c 0.05781,-0.242386 0.05064,-0.249967 -0.188887,-0.199554 -0.13694,0.02884 -0.366256,0.122424 -0.509595,0.208009 -0.308213,0.184033 -0.350748,0.550787 -0.109289,0.942326 0.104631,0.169669 0.118935,0.254435 0.04635,0.274723 -0.05774,0.01613 -0.104967,0.165692 -0.104967,0.332351 0,0.260045 0.03357,0.310075 0.236667,0.352824 0.211564,0.04452 0.229357,0.07561 0.167705,0.293018 -0.03793,0.133762 -0.05964,0.470311 -0.04823,0.747885 0.01907,0.464288 0.05935,0.553991 0.503112,1.120791 l 0.482374,0.616114 -0.0068,1.250378 c -0.0037,0.687707 -0.02363,1.617712 -0.04412,2.066681 -0.03233,0.70812 -0.01285,0.852361 0.147249,1.088401 l 0.184539,0.272101 0.02691,-0.733727 c 0.02177,-0.594528 -5.5e-5,-0.74637 -0.115119,-0.800369 -0.122305,-0.0574 -0.103525,-0.130562 0.135359,-0.527381 0.152547,-0.253407 0.277359,-0.566691 0.277359,-0.69619 0,-0.158571 0.0459,-0.235446 0.140569,-0.235446 0.07731,0 0.208105,-0.118754 0.290644,-0.263898 l 0.150078,-0.263901 0.455132,0.22503 c 0.250327,0.123763 0.515882,0.225026 0.590125,0.225026 0.201816,0 0.170874,-0.49109 -0.05009,-0.794987 -0.235708,-0.324177 -0.232744,-0.389125 0.02996,-0.656733 0.161118,-0.164124 0.198665,-0.268961 0.14831,-0.414116 -0.09825,-0.283194 -0.0974,-1.419261 0.0011,-1.549866 0.09626,-0.127565 0.177963,-0.08835 0.752738,0.361301 0.277543,0.217128 0.429724,0.268154 0.959158,0.321599 0.504369,0.05092 0.639129,0.04201 0.678896,-0.04489 0.03733,-0.08158 0.116158,-0.05497 0.318484,0.107583 0.251886,0.202357 0.257482,0.219532 0.08861,0.271915 -0.143658,0.04456 -0.193846,0.162289 -0.24716,0.579773 -0.06317,0.494593 -0.05034,0.549121 0.229661,0.976203 0.163109,0.248794 0.267342,0.491996 0.231628,0.540451 -0.112556,0.152716 -1.055326,0.01849 -1.636953,-0.233023 -0.294258,-0.127255 -0.53501,-0.200571 -0.53501,-0.162922 0,0.182631 0.234066,0.464485 0.385731,0.464485 0.148177,0 0.170544,0.06659 0.170544,0.507827 0,0.279308 0.06122,0.630686 0.13604,0.780847 0.119576,0.239984 0.119576,0.278315 0,0.316794 -0.09561,0.03077 -0.13604,0.164764 -0.13604,0.450952 0,0.73944 0.119711,2.063971 0.186545,2.063971 0.07776,0 0.186944,-0.637039 0.266282,-1.553638 l 0.05709,-0.659595 0.393638,0.02415 c 0.357134,0.02188 0.40277,0.004 0.492108,-0.193045 0.05416,-0.119449 0.08577,-0.340765 0.07026,-0.491819 -0.02654,-0.258516 -0.0119,-0.274637 0.249592,-0.274637 0.241812,0 0.281393,0.03074 0.305471,0.237041 0.02112,0.180891 0.09248,0.257558 0.301315,0.323657 0.221655,0.07015 0.273655,0.132214 0.273655,0.326595 0,0.188154 0.04004,0.239984 0.185424,0.239984 0.120123,0 0.185424,-0.05184 0.185424,-0.147168 0,-0.08094 0.06257,-0.167307 0.13907,-0.19192 0.149615,-0.04814 0.180713,-0.411063 0.07931,-0.925541 l -0.05772,-0.292836 -0.44726,0.04975 c -0.57665,0.06414 -0.773819,0.0062 -0.648285,-0.190473 0.339155,-0.531404 1.71593,-0.681411 2.193411,-0.23899 0.178614,0.1655 0.152876,0.181281 -0.470473,0.288442 l -0.370847,0.06375 0.03324,0.617571 c 0.01828,0.339662 0.07115,0.656863 0.11749,0.704894 0.04634,0.04803 0.06057,0.139111 0.03161,0.202402 -0.04126,0.09014 0.07342,0.130182 0.529131,0.184776 l 0.581797,0.06969 0.226333,0.913483 c 0.124482,0.502413 0.251475,0.913482 0.282205,0.913482 0.03074,0 0.130084,-0.0962 0.220792,-0.213794 l 0.164925,-0.213795 -0.05888,0.330408 c -0.06647,0.372955 0.0037,0.405731 0.362113,0.169279 0.280387,-0.184939 0.308102,-0.148299 0.09456,0.124995 -0.304803,0.390075 0.02334,0.174478 0.367964,-0.241769 0.196515,-0.237349 0.374874,-0.416809 0.396356,-0.398797 0.02148,0.01802 -0.04543,0.198031 -0.148697,0.400043 -0.235753,0.461184 -0.235459,0.602985 7.28e-4,0.365225 0.171442,-0.172566 0.18234,-0.174228 0.18234,-0.02774 0,0.190807 0.23138,0.276613 0.464183,0.172139 0.269618,-0.121001 0.321611,-0.0917 0.138444,0.07802 -0.09516,0.08817 -0.121447,0.155484 -0.06072,0.155484 0.05889,0 0.107082,0.05248 0.107082,0.116617 0,0.06478 0.08241,0.116613 0.185427,0.116613 0.101979,0 0.185424,0.03792 0.185424,0.08428 0,0.04635 0.16688,-0.02654 0.370851,-0.16202 0.416421,-0.276559 0.464292,-0.250658 0.172282,0.09322 -0.163831,0.192935 -0.175992,0.246009 -0.06954,0.303442 0.247539,0.133537 0.392013,0.02745 0.646083,-0.474399 0.251638,-0.497051 0.252916,-0.507615 0.078,-0.644412 -0.228049,-0.178346 -0.22739,-0.238474 0.0014,-0.135758 0.09863,0.04426 0.203673,0.08048 0.233427,0.08048 0.106746,0 -0.06747,-1.748351 -0.179799,-1.804432 -0.259055,-0.129342 -0.553121,-0.371422 -0.395205,-0.325343 0.121048,0.03532 0.162245,0.0058 0.162245,-0.116463 1.5e-5,-0.0901 -0.04171,-0.163803 -0.0927,-0.163803 -0.05099,0 -0.09271,-0.05138 -0.09271,-0.114174 0,-0.06477 -0.055,-0.09648 -0.127103,-0.07328 -0.06991,0.0225 -0.150798,-0.01089 -0.179755,-0.07415 -0.03288,-0.07181 -0.124451,-0.0993 -0.243744,-0.07314 -0.121045,0.02654 -0.191097,0.0046 -0.191097,-0.05976 0,-0.06312 -0.04739,-0.04732 -0.125005,0.04168 -0.06875,0.07885 -0.173051,0.118447 -0.231781,0.08801 -0.05873,-0.03044 -0.106775,-0.0134 -0.106775,0.03786 0,0.05126 -0.07253,0.137668 -0.161175,0.192021 -0.138378,0.08485 -0.184188,0.06956 -0.323882,-0.108042 -0.206702,-0.262802 -0.209825,-0.781709 -0.0068,-1.138616 0.179912,-0.31636 1.265507,-1.021499 1.823816,-1.184648 0.696004,-0.20338 1.104925,-0.208536 1.548803,-0.01952 0.564463,0.240359 0.727752,0.356658 1.311933,0.934418 0.920931,0.910788 1.028104,1.327519 0.488855,1.900808 -0.117975,0.125418 -0.161011,0.134611 -0.224819,0.04804 -0.06263,-0.08497 -0.09056,-0.07629 -0.13535,0.04203 -0.06447,0.170326 -0.427395,0.204994 -0.427395,0.04082 0,-0.06431 -0.05649,-0.0901 -0.139072,-0.06352 -0.07646,0.02461 -0.139065,0.0055 -0.139065,-0.04261 0,-0.04954 -0.0735,-0.03157 -0.169775,0.04148 -0.09337,0.07086 -0.197421,0.105647 -0.231213,0.07731 -0.03379,-0.02833 -0.147685,0.01395 -0.253094,0.09392 -0.145213,0.110199 -0.208931,0.122006 -0.262941,0.04872 -0.03921,-0.0532 -0.140964,-0.07431 -0.226121,-0.0469 -0.105051,0.03379 -0.154833,0.0096 -0.154833,-0.07512 0,-0.06871 -0.04172,-0.124933 -0.09271,-0.124933 -0.129138,0 -0.117942,1.194118 0.01467,1.56528 0.107435,0.300679 0.202199,0.368835 0.309818,0.222813 0.03153,-0.04275 0.01758,-0.07774 -0.03095,-0.07774 -0.143851,0 -0.208781,-0.235184 -0.144391,-0.522995 0.07688,-0.343624 0.485272,-0.564718 1.043852,-0.56512 0.346988,-1.92e-4 0.456445,0.0429 0.764877,0.301536 0.417657,0.350224 0.469321,0.649013 0.167793,0.970452 -0.210822,0.224735 -0.378344,0.256594 -0.566101,0.107663 -0.06734,-0.05345 -0.226815,-0.09717 -0.354299,-0.09717 -0.201029,0 -0.235607,0.03879 -0.260614,0.292348 -0.01857,0.188274 0.02268,0.335547 0.115894,0.413704 0.171594,0.143891 0.19062,0.507122 0.03345,0.638903 -0.181153,0.151905 -0.441614,0.106881 -0.551487,-0.09534 -0.12759,-0.234822 -0.03113,-0.588811 0.160462,-0.588811 0.105686,0 0.135571,-0.06617 0.114125,-0.252665 -0.02382,-0.207222 -0.07281,-0.256918 -0.272355,-0.276321 -0.133816,-0.013 -0.304396,0.02757 -0.379065,0.09018 -0.139598,0.117062 -0.392012,1.17559 -0.307625,1.290084 0.02596,0.03521 0.194854,0.08724 0.375343,0.115638 0.271875,0.04277 0.371453,0.117438 0.580476,0.43528 0.307259,0.467209 -0.0095,0.451659 3.914459,0.192152 1.606238,-0.106225 2.993438,-0.193551 3.082678,-0.194057 0.15311,-7.65e-4 0.16224,0.331704 0.16224,5.90298 0,5.176959 -0.0302,6.095089 -0.19571,5.956269 z M 60.219053,100.7954 c 0.452652,-0.0777 0.847407,-0.16186 0.877233,-0.18687 0.07312,-0.0613 0.09058,-0.43847 0.10137,-2.18974 l 0.0092,-1.48807 0.733717,0.01096 c 0.403543,0.006 0.768598,-0.01809 0.811234,-0.05361 0.04263,-0.03549 0.0911,-0.551531 0.107702,-1.146712 l 0.03018,-1.082152 H 62.048238 61.206819 V 93.92336 93.187519 l 0.946685,-0.02217 0.946684,-0.02217 0.06851,-0.272102 c 0.03768,-0.149655 0.09759,-0.665675 0.133114,-1.146712 l 0.0646,-0.874611 h -2.51684 -2.516841 v 4.030357 c 0,2.216695 0.02747,4.510691 0.06105,5.097779 l 0.06105,1.06743 0.470609,-0.0542 c 0.258835,-0.0299 0.840962,-0.1179 1.293614,-0.19567 z m 41.575087,-1.141208 -0.0256,-1.146709 -0.90395,-0.02229 -0.903935,-0.02229 v -0.771474 -0.771467 l 0.764875,-0.02258 0.76487,-0.02258 V 95.864141 94.85348 l -0.81122,-0.02246 -0.811245,-0.02246 v -0.375972 c 0,-0.206785 0.026,-0.485301 0.0579,-0.61892 l 0.0579,-0.242948 h 0.768885 c 0.42288,0 0.83488,-0.02122 0.91553,-0.04719 0.12522,-0.04029 0.14666,-0.227798 0.14666,-1.282761 0,-1.135094 -0.0135,-1.235574 -0.16584,-1.235574 -0.25991,0 -3.446872,0.224618 -3.929751,0.276968 -0.255256,0.02767 -0.455013,0.09416 -0.485931,0.161722 -0.02884,0.06311 -0.05185,2.125688 -0.05105,4.583533 7.99e-4,3.455723 0.02725,4.476562 0.11509,4.503072 0.161881,0.0488 3.144342,0.24815 3.894112,0.26023 l 0.6283,0.0101 z m -6.269573,0.349848 c 0.0079,-0.224484 0.0182,-1.632609 0.0232,-3.129169 l 0.009,-2.721009 0.718523,-0.02272 0.718514,-0.02272 v -1.080544 c 0,-0.594302 -0.03123,-1.093617 -0.0695,-1.109587 -0.03827,-0.01598 -1.270557,0.02571 -2.738473,0.09259 -2.154828,0.0982 -2.686652,0.144092 -2.760874,0.238243 -0.107467,0.136318 -0.07683,1.97822 0.03444,2.071202 0.04106,0.03429 0.353973,0.06337 0.695347,0.06456 l 0.620675,0.0022 0.02429,3.012549 0.02425,3.012555 h 1.34324 1.343241 l 0.01417,-0.40816 z m -19.336535,-3.7e-4 c 0.02224,-0.01862 -0.207831,-0.677785 -0.511288,-1.464742 -0.753928,-1.955153 -0.725914,-1.776093 -0.347136,-2.218861 0.51067,-0.596941 0.73905,-1.264953 0.687414,-2.010713 -0.07406,-1.069644 -0.598779,-1.92297 -1.492623,-2.42737 -0.650345,-0.366987 -0.946297,-0.409331 -2.864263,-0.409809 l -1.738356,-4e-4 v 4.239198 4.239196 l 1.274795,-0.02165 1.274795,-0.02165 0.05774,-0.855174 c 0.03175,-0.470344 0.06592,-0.977622 0.07592,-1.127272 0.01526,-0.228581 0.05515,-0.166403 0.249276,0.388713 0.127102,0.363451 0.313225,0.895511 0.413602,1.182363 0.267812,0.765321 0.220475,0.747121 1.655869,0.636461 0.673092,-0.0519 1.242008,-0.10962 1.264254,-0.12828 z m -3.609301,-4.386296 c -0.09603,-0.08052 -0.07189,-2.124304 0.02509,-2.124304 0.130641,0 0.382614,0.23445 0.477945,0.444711 0.125498,0.276784 0.103136,1.000921 -0.03976,1.287571 -0.137632,0.276101 -0.368521,0.471476 -0.463274,0.392022 z m 18.574186,0.324604 V 91.704929 H 89.76223 88.371548 v 4.237002 4.236999 h 1.390682 1.390687 z m -23.848003,4.04065 c 1.680862,-0.418559 2.456759,-2.014258 2.305586,-4.741631 -0.143797,-2.594346 -1.163548,-3.769251 -3.271498,-3.769251 -1.529658,0 -2.547556,0.788557 -3.010612,2.332295 -0.199364,0.664642 -0.173602,3.384484 0.03829,4.042649 0.47418,1.472851 1.473492,2.23607 2.945664,2.24976 0.283948,0.002 0.730603,-0.0486 0.992567,-0.113822 z m -1.109615,-1.922145 c -0.168177,-0.250966 -0.16369,-4.198751 0.0051,-4.528542 0.112746,-0.220227 0.126468,-0.225161 0.246168,-0.08848 0.06972,0.07961 0.15559,0.338198 0.19082,0.574641 0.07753,0.520379 -0.0038,3.889876 -0.09852,4.081261 -0.09096,0.183786 -0.20289,0.171124 -0.343617,-0.03891 z m 20.948586,1.918168 0.765656,-0.05313 -0.02396,-4.28522 -0.02396,-4.285212 -1.283863,-0.02167 -1.283863,-0.02167 0.05558,0.371522 c 0.03058,0.204338 0.09819,0.913784 0.150267,1.576546 0.05208,0.662759 0.117536,1.292478 0.14547,1.399377 0.112332,0.429865 -0.151952,-0.02592 -0.850759,-1.467219 -0.401621,-0.82835 -0.777831,-1.560686 -0.836025,-1.627419 -0.0931,-0.106767 -0.187922,-0.109513 -0.789963,-0.02286 -0.37629,0.05415 -0.835803,0.130791 -1.021144,0.170318 l -0.336976,0.07186 -0.06356,2.506636 c -0.03495,1.37865 -0.05019,3.171346 -0.03387,3.983755 l 0.02967,1.477126 1.066192,0.02261 c 1.586254,0.03356 1.478401,0.104233 1.428829,-0.936174 -0.02291,-0.480961 -0.05894,-1.132769 -0.08004,-1.448458 -0.02112,-0.315686 -0.0061,-0.543083 0.03338,-0.50533 0.06614,0.06325 0.579595,1.060945 1.303249,2.532311 0.283446,0.576311 0.424465,0.69752 0.744935,0.64027 0.07649,-0.0137 0.483611,-0.0487 0.904725,-0.07798 z m -7.232344,-0.09912 0.208603,-0.0115 v -2.873228 -2.873228 l 0.718519,-0.02272 0.71852,-0.02272 v -1.026402 c 0,-0.621936 -0.03888,-1.058926 -0.09865,-1.108934 -0.10588,-0.08858 -2.307468,-0.276855 -4.235653,-0.362228 l -1.18208,-0.05233 v 1.096623 1.096627 l 0.672163,0.02283 0.672167,0.02283 0.02429,3.027968 c 0.01613,2.009734 0.05701,3.04494 0.12164,3.078422 0.08149,0.04226 1.664073,0.04754 2.380487,0.008 z m 16.062422,-11.82019 c 0,-0.09819 -0.262013,-0.170833 -0.322104,-0.0893 -0.02745,0.03724 0.0026,0.08543 0.06656,0.107081 0.183708,0.06211 0.255537,0.05711 0.255537,-0.01777 z M 87.999276,86.04913 c -0.0037,-0.144069 -0.178563,-0.271052 -0.313716,-0.22756 -0.196445,0.06321 -0.189032,0.187827 0.01383,0.232279 0.261993,0.05741 0.301393,0.0568 0.299896,-0.0048 z"
         id="path32" />
      <text
         xml:space="preserve"
         style="font-style:normal;font-variant:normal;font-weight:normal;font-stretch:normal;font-size:13.4351px;line-height:1.25;font-family:Jokerman;-inkscape-font-specification:'Jokerman, Normal';font-variant-ligatures:normal;font-variant-caps:normal;font-variant-numeric:normal;font-variant-east-asian:normal;fill:none;fill-opacity:1;stroke:#0000ff;stroke-width:0.335879;stroke-opacity:1"
         x="38.263439"
         y="91.37043"
         id="text911"
         transform="rotate(-16.885861)"><tspan
           sodipodi:role="line"
           id="tspan909"
           x="38.263439"
           y="91.37043"
           style="font-style:normal;font-variant:normal;font-weight:normal;font-stretch:normal;font-size:13.4351px;font-family:Jokerman;-inkscape-font-specification:'Jokerman, Normal';font-variant-ligatures:normal;font-variant-caps:normal;font-variant-numeric:normal;font-variant-east-asian:normal;fill:none;stroke:#0000ff;stroke-width:0.335879;stroke-opacity:1">Nohé</tspan></text>
    </g>
  </g>
</svg>
