<?xml version="1.0" encoding="UTF-8" standalone="no"?>
<svg
   xmlns:shaper="http://www.shapertools.com/namespaces/shaper"
   xmlns:dc="http://purl.org/dc/elements/1.1/"
   xmlns:cc="http://creativecommons.org/ns#"
   xmlns:rdf="http://www.w3.org/1999/02/22-rdf-syntax-ns#"
   xmlns:svg="http://www.w3.org/2000/svg"
   xmlns="http://www.w3.org/2000/svg"
   xmlns:sodipodi="http://sodipodi.sourceforge.net/DTD/sodipodi-0.dtd"
   xmlns:inkscape="http://www.inkscape.org/namespaces/inkscape"
   enable-background="new 0 0 48.2788799 30.9120146"
   height="18cm"
   shaper:fusionaddin="version:1.5.0"
   version="1.1"
   viewBox="0 0 27.999999 18.000001"
   width="28cm"
   x="0cm"
   xml:space="preserve"
   y="0cm"
   id="svg1001"
   sodipodi:docname="birdhouse_part3.svg"
   inkscape:version="1.0.1 (3bc2e813f5, 2020-09-07)"><metadata
     id="metadata1007"><rdf:RDF><cc:Work
         rdf:about=""><dc:format>image/svg+xml</dc:format><dc:type
           rdf:resource="http://purl.org/dc/dcmitype/StillImage" /><dc:title></dc:title></cc:Work></rdf:RDF></metadata><defs
     id="defs1005" /><sodipodi:namedview
     pagecolor="#ffffff"
     bordercolor="#666666"
     borderopacity="1"
     objecttolerance="10"
     gridtolerance="10"
     guidetolerance="10"
     inkscape:pageopacity="0"
     inkscape:pageshadow="2"
     inkscape:window-width="1920"
     inkscape:window-height="1017"
     id="namedview1003"
     showgrid="false"
     inkscape:document-units="cm"
     inkscape:zoom="0.66530988"
     inkscape:cx="912.35681"
     inkscape:cy="524.04168"
     inkscape:window-x="-8"
     inkscape:window-y="-8"
     inkscape:window-maximized="1"
     inkscape:current-layer="svg1001" /><g
     id="g1572"
     transform="translate(-27.996978,0.43745275)"
     style="stroke:#ff0000;stroke-opacity:1"><path
       d="m 18.572268,24.123145 -0.353812,0.353741 -1.415037,-1.415038 0.353741,-0.353744 -1.415175,-1.415175 -0.353745,0.353741 -1.415104,-1.415105 0.353741,-0.353811 -1.415108,-1.415041 -0.353741,0.353744 -1.415108,-1.415108 0.353741,-0.353811 -0.566096,-0.565962 0.566237,-0.566095 -0.353882,-0.353744 1.415108,-1.415176 0.353741,0.353741 1.415108,-1.415108 -0.353741,-0.353811 1.415104,-1.415038 0.353745,0.353745 1.415175,-1.415108 -0.353741,-0.3538118 1.415037,-1.415108 0.353812,0.3537408 0.707485,-0.7076193 0.487758,-0.00393 -0.106455,0.504638 1.958467,0.4120339 0.103008,-0.4895497 1.955161,0.4271929 -0.106108,0.5046378 1.958467,0.4120338 0.103007,-0.4894791 1.955162,0.4271927 -0.103008,0.489684 1.958468,0.412034 0.0997,-0.474596 0.977579,0.213597 v 1.000661 h -0.499674 v 2.001255 h 0.499674 v 2.001326 h -0.49947 v 2.001255 h 0.49947 v 2.001256 h -0.500228 v 2.001326 h 0.500228 v 1.000594 l -0.977579,0.213526 -0.103007,-0.489479 -1.958471,0.412033 0.106317,0.504705 -1.955162,0.427126 -0.106313,-0.504433 -1.95847,0.412034 0.109417,0.519521 -1.955161,0.42726 -0.106313,-0.50443 -1.958471,0.412035 0.109764,0.519517 -0.487758,-0.0041 z"
       fill="none"
       shaper:cutDepth="0"
       shaper:pathType="guide"
       stroke="#646464"
       transform="matrix(1,0,0,-1,17.71282,24.885025)"
       vector-effect="non-scaling-stroke"
       id="path937"
       style="stroke:#ff0000;stroke-opacity:1" /><path
       d="m 14.071148,16.481576 v 0 l -8.26e-4,-0.03268 -0.0025,-0.03225 -0.004,-0.03178 -0.0056,-0.03127 -0.0071,-0.03072 -0.0086,-0.03013 -0.01,-0.02951 -0.01137,-0.02884 -0.01272,-0.02813 -0.01402,-0.02738 -0.01529,-0.02659 -0.01652,-0.02576 -0.0177,-0.0249 -0.01885,-0.02399 -0.01996,-0.02304 -0.02103,-0.02205 -0.02205,-0.02103 -0.02304,-0.01996 -0.02399,-0.01885 -0.0249,-0.0177 -0.02576,-0.01652 -0.02659,-0.01529 -0.02738,-0.01402 -0.02813,-0.01272 -0.02884,-0.01137 -0.0295,-0.01 -0.03013,-0.0086 -0.03072,-0.0071 -0.03127,-0.0056 -0.03178,-0.004 -0.03225,-0.0025 -0.03268,-8.26e-4 -0.03267,8.26e-4 -0.03225,0.0025 -0.03178,0.004 -0.03127,0.0056 -0.03072,0.0071 -0.03013,0.0086 -0.0295,0.01 -0.02884,0.01137 -0.02813,0.01272 -0.02738,0.01402 -0.02659,0.01529 -0.02576,0.01652 -0.0249,0.0177 -0.02399,0.01885 -0.02304,0.01996 -0.02205,0.02103 -0.02103,0.02205 -0.01996,0.02304 -0.01885,0.02399 -0.0177,0.0249 -0.01652,0.02576 -0.01529,0.02659 -0.01402,0.02738 -0.01272,0.02813 -0.01137,0.02884 -0.01,0.02951 -0.0086,0.03013 -0.0071,0.03072 -0.0056,0.03127 -0.004,0.03178 -0.0025,0.03225 -8.27e-4,0.03268 8.27e-4,0.03268 0.0025,0.03225 0.004,0.03178 0.0056,0.03127 0.0071,0.03072 0.0086,0.03013 0.01,0.02951 0.01137,0.02884 0.01272,0.02813 0.01402,0.02738 0.01529,0.02659 0.01652,0.02576 0.0177,0.0249 0.01885,0.02399 0.01996,0.02304 0.02103,0.02205 0.02205,0.02103 0.02304,0.01996 0.02399,0.01885 0.0249,0.0177 0.02576,0.01652 0.02659,0.01529 0.02738,0.01402 0.02813,0.01272 0.02884,0.01137 0.0295,0.01 0.03013,0.0086 0.03072,0.0071 0.03127,0.0056 0.03178,0.004 0.03225,0.0025 0.03267,8.26e-4 0.03268,-8.26e-4 0.03225,-0.0025 0.03178,-0.004 0.03127,-0.0056 0.03072,-0.0071 0.03013,-0.0086 0.0295,-0.01 0.02884,-0.01137 0.02813,-0.01272 0.02738,-0.01402 0.02659,-0.01529 0.02576,-0.01652 0.0249,-0.0177 0.02399,-0.01885 0.02304,-0.01996 0.02205,-0.02103 0.02103,-0.02205 0.01996,-0.02304 0.01885,-0.02399 0.0177,-0.0249 0.01652,-0.02576 0.01529,-0.02659 0.01402,-0.02738 0.01272,-0.02813 0.01137,-0.02884 0.01,-0.02951 0.0086,-0.03013 0.0071,-0.03072 0.0056,-0.03127 0.004,-0.03178 0.0025,-0.03225 z"
       fill="none"
       shaper:cutDepth="0"
       shaper:pathType="guide"
       stroke="#646464"
       transform="matrix(1,0,0,-1,17.71282,24.885025)"
       vector-effect="non-scaling-stroke"
       id="path973"
       style="stroke:#ff0000;stroke-opacity:1" /></g></svg>
