<?xml version="1.0" encoding="UTF-8" standalone="no"?>
<svg
   xmlns:shaper="http://www.shapertools.com/namespaces/shaper"
   xmlns:dc="http://purl.org/dc/elements/1.1/"
   xmlns:cc="http://creativecommons.org/ns#"
   xmlns:rdf="http://www.w3.org/1999/02/22-rdf-syntax-ns#"
   xmlns:svg="http://www.w3.org/2000/svg"
   xmlns="http://www.w3.org/2000/svg"
   xmlns:sodipodi="http://sodipodi.sourceforge.net/DTD/sodipodi-0.dtd"
   xmlns:inkscape="http://www.inkscape.org/namespaces/inkscape"
   enable-background="new 0 0 48.2788799 30.9120146"
   height="18cm"
   shaper:fusionaddin="version:1.5.0"
   version="1.1"
   viewBox="0 0 27.999999 18.000001"
   width="28cm"
   x="0cm"
   xml:space="preserve"
   y="0cm"
   id="svg989"
   sodipodi:docname="birdhouse_part1.svg"
   inkscape:version="1.0.1 (3bc2e813f5, 2020-09-07)"><metadata
     id="metadata995"><rdf:RDF><cc:Work
         rdf:about=""><dc:format>image/svg+xml</dc:format><dc:type
           rdf:resource="http://purl.org/dc/dcmitype/StillImage" /><dc:title></dc:title></cc:Work></rdf:RDF></metadata><defs
     id="defs993" /><sodipodi:namedview
     pagecolor="#ffffff"
     bordercolor="#666666"
     borderopacity="1"
     objecttolerance="10"
     gridtolerance="10"
     guidetolerance="10"
     inkscape:pageopacity="0"
     inkscape:pageshadow="2"
     inkscape:window-width="1920"
     inkscape:window-height="1017"
     id="namedview991"
     showgrid="false"
     inkscape:document-units="cm"
     inkscape:zoom="0.70784911"
     inkscape:cx="772.49649"
     inkscape:cy="506.46387"
     inkscape:window-x="-8"
     inkscape:window-y="-8"
     inkscape:window-maximized="1"
     inkscape:current-layer="svg989"
     inkscape:document-rotation="0" /><path
     d="m 15.744832,11.840673 v 0.501192 h 0.700458 v -1.000594 h 0.500295 V 9.3399445 H 16.44529 v -2.001255 h 0.500295 V 5.3374345 H 16.44529 v -2.001326 h 0.500295 V 1.3348539 H 16.44529 V 0.73444389 H 9.4407883 V 1.3348539 h -0.500366 v 2.0012546 h 0.500366 v 2.001326 h -0.500366 v 2.001255 h 0.500366 v 2.001255 h -0.500366 v 2.0013265 h 0.500366 v 1.000594 h 0.7004577 v -0.500296 h 0.800502 v 0.500296 h 0.800503 v -0.500296 h 0.800502 v 0.500296 h 0.800502 v -0.500296 h 0.800502 v 0.500296 h 0.800573 v -0.501192 z"
     fill="none"
     shaper:cutDepth="0"
     shaper:pathType="guide"
     stroke="#646464"
     vector-effect="non-scaling-stroke"
     id="path921"
     style="stroke:#ff0000;stroke-opacity:1" /><path
     d="m 18.187355,11.468619 v 0.60041 h 7.004432 v -0.60041 h 0.500366 V 9.4673605 h -0.500366 v -2.001256 h 0.500366 V 5.4647829 H 25.191787 V 3.463524 h 0.500366 V 1.4622689 H 25.191787 V 0.46160786 h -0.700458 v 0.5002951 h -0.800502 v -0.5002951 h -0.800503 v 0.5002951 H 22.089822 V 0.46160786 H 21.28932 v 0.5002951 h -0.800503 v -0.5002951 h -0.800502 v 0.501191 h -0.800569 v -0.501191 H 18.187355 V 1.4622689 H 17.686989 V 3.463524 h 0.500366 v 2.001259 h -0.500366 v 2.0013215 h 0.500366 v 2.001256 h -0.500366 v 2.0012585 z"
     fill="none"
     shaper:cutDepth="0"
     shaper:pathType="guide"
     stroke="#646464"
     vector-effect="non-scaling-stroke"
     id="path923"
     style="stroke:#ff0000;stroke-opacity:1" /><g
     id="g1012"
     transform="translate(-3.1397934,0.03737849)"
     style="stroke:#ff0000;stroke-opacity:1"><path
       d="m -6.6108298,13.525239 h 0.5003659 v 2.001255 h -0.5003659 v 2.001326 h 0.5003659 v 2.001255 h -0.506289 v 2.001256 h 0.506289 v 2.001325 h -0.506289 v 0.500296 h -0.6945313 v 0.500295 h -0.8005021 v -0.500295 h -0.8005022 v 0.500295 h -0.8005022 v -0.500295 h -0.8005023 v 0.500295 h -0.800506 v -0.500295 h -0.800502 v 0.500295 h -0.800569 v -0.500295 h -0.700458 v -0.500296 h -0.500295 v -2.001325 h 0.500295 v -2.001256 h -0.500295 V 17.52782 h 0.500295 v -2.001326 h -0.500295 v -2.001255 h 0.500295 v -0.49947 h 0.700458 v -0.501195 h 0.800569 v 0.501195 h 0.800502 v -0.501195 h 0.800506 v 0.501195 h 0.8005023 v -0.501195 h 0.8005022 v 0.501195 h 0.8005022 v -0.501195 h 0.8005021 v 0.501195 h 0.7004544 z"
       fill="none"
       shaper:cutDepth="0"
       shaper:pathType="guide"
       stroke="#646464"
       transform="matrix(1,0,0,-1,17.71282,24.885025)"
       vector-effect="non-scaling-stroke"
       id="path919"
       style="stroke:#ff0000;stroke-opacity:1" /><path
       d="m -12.884623,14.211811 v 0 l 0.01634,-4.13e-4 0.01612,-0.0012 0.01589,-0.002 0.01564,-0.0028 0.01536,-0.0035 0.01507,-0.0043 0.01475,-0.005 0.01442,-0.0057 0.01406,-0.0064 0.01369,-0.007 0.0133,-0.0076 0.01288,-0.0083 0.01245,-0.0089 0.01199,-0.0094 0.01152,-0.01 0.01103,-0.01051 0.01051,-0.01103 0.01,-0.01152 0.0094,-0.01199 0.0089,-0.01245 0.0083,-0.01288 0.0076,-0.0133 0.007,-0.01369 0.0064,-0.01406 0.0057,-0.01442 0.005,-0.01475 0.0043,-0.01507 0.0035,-0.01536 0.0028,-0.01564 0.002,-0.01589 0.0012,-0.01612 4.13e-4,-0.01634 -4.13e-4,-0.01634 -0.0012,-0.01612 -0.002,-0.01589 -0.0028,-0.01564 -0.0035,-0.01536 -0.0043,-0.01507 -0.005,-0.01475 -0.0057,-0.01442 -0.0064,-0.01406 -0.007,-0.01369 -0.0076,-0.0133 -0.0083,-0.01288 -0.0089,-0.01245 -0.0094,-0.01199 -0.01,-0.01152 -0.01051,-0.01103 -0.01103,-0.01051 -0.01152,-0.01 -0.01199,-0.0094 -0.01245,-0.0089 -0.01288,-0.0083 -0.0133,-0.0076 -0.01369,-0.007 -0.01406,-0.0064 -0.01442,-0.0057 -0.01475,-0.005 -0.01507,-0.0043 -0.01536,-0.0035 -0.01564,-0.0028 -0.01589,-0.002 -0.01612,-0.0012 -0.01634,-4.13e-4 -0.01634,4.13e-4 -0.01612,0.0012 -0.01589,0.002 -0.01563,0.0028 -0.01536,0.0035 -0.01507,0.0043 -0.01475,0.005 -0.01442,0.0057 -0.01406,0.0064 -0.01369,0.007 -0.0133,0.0076 -0.01288,0.0083 -0.01245,0.0089 -0.01199,0.0094 -0.01152,0.01 -0.01103,0.01051 -0.01051,0.01103 -0.01,0.01152 -0.0094,0.01199 -0.0089,0.01245 -0.0083,0.01288 -0.0076,0.0133 -0.007,0.01369 -0.0064,0.01406 -0.0057,0.01442 -0.005,0.01475 -0.0043,0.01507 -0.0035,0.01536 -0.0028,0.01564 -0.002,0.01589 -0.0012,0.01612 -4.13e-4,0.01634 4.13e-4,0.01634 0.0012,0.01612 0.002,0.01589 0.0028,0.01564 0.0035,0.01536 0.0043,0.01507 0.005,0.01475 0.0057,0.01442 0.0064,0.01406 0.007,0.01369 0.0076,0.0133 0.0083,0.01288 0.0089,0.01245 0.0094,0.01199 0.01,0.01152 0.01051,0.01103 0.01103,0.01051 0.01152,0.01 0.01199,0.0094 0.01245,0.0089 0.01288,0.0083 0.0133,0.0076 0.01369,0.007 0.01406,0.0064 0.01442,0.0057 0.01475,0.005 0.01507,0.0043 0.01536,0.0035 0.01563,0.0028 0.01589,0.002 0.01612,0.0012 z"
       fill="none"
       shaper:cutDepth="0"
       shaper:pathType="guide"
       stroke="#646464"
       transform="matrix(1,0,0,-1,17.71282,24.885025)"
       vector-effect="non-scaling-stroke"
       id="path979"
       style="stroke:#ff0000;stroke-opacity:1" /><path
       d="m -12.884623,23.489867 v 0 l 0.01634,-4.14e-4 0.01612,-0.0012 0.01589,-0.002 0.01564,-0.0028 0.01536,-0.0035 0.01507,-0.0043 0.01475,-0.005 0.01442,-0.0057 0.01406,-0.0064 0.01369,-0.007 0.0133,-0.0076 0.01288,-0.0083 0.01245,-0.0089 0.01199,-0.0094 0.01152,-0.01 0.01103,-0.01051 0.01051,-0.01103 0.01,-0.01152 0.0094,-0.01199 0.0089,-0.01245 0.0083,-0.01288 0.0076,-0.0133 0.007,-0.01369 0.0064,-0.01406 0.0057,-0.01442 0.005,-0.01475 0.0043,-0.01507 0.0035,-0.01536 0.0028,-0.01563 0.002,-0.01589 0.0012,-0.01613 4.13e-4,-0.01634 -4.13e-4,-0.01634 -0.0012,-0.01612 -0.002,-0.01589 -0.0028,-0.01564 -0.0035,-0.01536 -0.0043,-0.01507 -0.005,-0.01475 -0.0057,-0.01442 -0.0064,-0.01406 -0.007,-0.01369 -0.0076,-0.0133 -0.0083,-0.01288 -0.0089,-0.01245 -0.0094,-0.01199 -0.01,-0.01152 -0.01051,-0.01103 -0.01103,-0.01051 -0.01152,-0.01 -0.01199,-0.0094 -0.01245,-0.0089 -0.01288,-0.0083 -0.0133,-0.0076 -0.01369,-0.007 -0.01406,-0.0064 -0.01442,-0.0057 -0.01475,-0.005 -0.01507,-0.0043 -0.01536,-0.0035 -0.01564,-0.0028 -0.01589,-0.002 -0.01612,-0.0012 -0.01634,-4.14e-4 -0.01634,4.14e-4 -0.01612,0.0012 -0.01589,0.002 -0.01563,0.0028 -0.01536,0.0035 -0.01507,0.0043 -0.01475,0.005 -0.01442,0.0057 -0.01406,0.0064 -0.01369,0.007 -0.0133,0.0076 -0.01288,0.0083 -0.01245,0.0089 -0.01199,0.0094 -0.01152,0.01 -0.01103,0.01051 -0.01051,0.01103 -0.01,0.01152 -0.0094,0.01199 -0.0089,0.01245 -0.0083,0.01288 -0.0076,0.0133 -0.007,0.01369 -0.0064,0.01406 -0.0057,0.01442 -0.005,0.01475 -0.0043,0.01507 -0.0035,0.01536 -0.0028,0.01564 -0.002,0.01589 -0.0012,0.01612 -4.13e-4,0.01634 4.13e-4,0.01634 0.0012,0.01613 0.002,0.01589 0.0028,0.01563 0.0035,0.01536 0.0043,0.01507 0.005,0.01475 0.0057,0.01442 0.0064,0.01406 0.007,0.01369 0.0076,0.0133 0.0083,0.01288 0.0089,0.01245 0.0094,0.01199 0.01,0.01152 0.01051,0.01103 0.01103,0.01051 0.01152,0.01 0.01199,0.0094 0.01245,0.0089 0.01288,0.0083 0.0133,0.0076 0.01369,0.007 0.01406,0.0064 0.01442,0.0057 0.01475,0.005 0.01507,0.0043 0.01536,0.0035 0.01563,0.0028 0.01589,0.002 0.01612,0.0012 z"
       fill="none"
       shaper:cutDepth="0"
       shaper:pathType="guide"
       stroke="#646464"
       transform="matrix(1,0,0,-1,17.71282,24.885025)"
       vector-effect="non-scaling-stroke"
       id="path983"
       style="stroke:#ff0000;stroke-opacity:1" /><path
       d="m -7.2252946,23.489867 v 0 l 0.016339,-4.14e-4 0.016124,-0.0012 0.01589,-0.002 0.015635,-0.0028 0.015361,-0.0035 0.015067,-0.0043 0.014753,-0.005 0.014418,-0.0057 0.014064,-0.0064 0.01369,-0.007 0.013296,-0.0076 0.012882,-0.0083 0.012448,-0.0089 0.011994,-0.0094 0.01152,-0.01 0.011026,-0.01051 0.010513,-0.01103 0.00998,-0.01152 0.00943,-0.01199 0.00885,-0.01245 0.00826,-0.01288 0.00764,-0.0133 0.00701,-0.01369 0.00636,-0.01406 0.00568,-0.01442 0.00499,-0.01475 0.00428,-0.01507 0.00355,-0.01536 0.00279,-0.01563 0.00202,-0.01589 0.00123,-0.01613 4.131e-4,-0.01634 -4.131e-4,-0.01634 -0.00123,-0.01612 -0.00202,-0.01589 -0.00279,-0.01564 -0.00355,-0.01536 -0.00428,-0.01507 -0.00499,-0.01475 -0.00568,-0.01442 -0.00636,-0.01406 -0.00701,-0.01369 -0.00764,-0.0133 -0.00826,-0.01288 -0.00885,-0.01245 -0.00943,-0.01199 -0.00998,-0.01152 -0.010513,-0.01103 -0.011026,-0.01051 -0.01152,-0.01 -0.011994,-0.0094 -0.012448,-0.0089 -0.012882,-0.0083 -0.013296,-0.0076 -0.01369,-0.007 -0.014064,-0.0064 -0.014418,-0.0057 -0.014753,-0.005 -0.015067,-0.0043 -0.015361,-0.0035 -0.015635,-0.0028 -0.01589,-0.002 -0.016124,-0.0012 -0.016339,-4.14e-4 -0.016339,4.14e-4 -0.016124,0.0012 -0.01589,0.002 -0.015636,0.0028 -0.015361,0.0035 -0.015067,0.0043 -0.014752,0.005 -0.014418,0.0057 -0.014064,0.0064 -0.01369,0.007 -0.013296,0.0076 -0.012882,0.0083 -0.012448,0.0089 -0.011994,0.0094 -0.01152,0.01 -0.011026,0.01051 -0.010513,0.01103 -0.00998,0.01152 -0.00943,0.01199 -0.00885,0.01245 -0.00826,0.01288 -0.00764,0.0133 -0.00701,0.01369 -0.00636,0.01406 -0.00568,0.01442 -0.00499,0.01475 -0.00428,0.01507 -0.00355,0.01536 -0.00279,0.01564 -0.00202,0.01589 -0.00123,0.01612 -4.131e-4,0.01634 4.131e-4,0.01634 0.00123,0.01613 0.00202,0.01589 0.00279,0.01563 0.00355,0.01536 0.00428,0.01507 0.00499,0.01475 0.00568,0.01442 0.00636,0.01406 0.00701,0.01369 0.00764,0.0133 0.00826,0.01288 0.00885,0.01245 0.00943,0.01199 0.00998,0.01152 0.010513,0.01103 0.011026,0.01051 0.01152,0.01 0.011994,0.0094 0.012448,0.0089 0.012882,0.0083 0.013296,0.0076 0.01369,0.007 0.014064,0.0064 0.014418,0.0057 0.014752,0.005 0.015067,0.0043 0.015361,0.0035 0.015636,0.0028 0.01589,0.002 0.016124,0.0012 z"
       fill="none"
       shaper:cutDepth="0"
       shaper:pathType="guide"
       stroke="#646464"
       transform="matrix(1,0,0,-1,17.71282,24.885025)"
       vector-effect="non-scaling-stroke"
       id="path985"
       style="stroke:#ff0000;stroke-opacity:1" /><path
       d="m -7.2252946,14.211811 v 0 l 0.016339,-4.13e-4 0.016124,-0.0012 0.01589,-0.002 0.015635,-0.0028 0.015361,-0.0035 0.015067,-0.0043 0.014753,-0.005 0.014418,-0.0057 0.014064,-0.0064 0.01369,-0.007 0.013296,-0.0076 0.012882,-0.0083 0.012448,-0.0089 0.011994,-0.0094 0.01152,-0.01 0.011026,-0.01051 0.010513,-0.01103 0.00998,-0.01152 0.00943,-0.01199 0.00885,-0.01245 0.00826,-0.01288 0.00764,-0.0133 0.00701,-0.01369 0.00636,-0.01406 0.00568,-0.01442 0.00499,-0.01475 0.00428,-0.01507 0.00355,-0.01536 0.00279,-0.01564 0.00202,-0.01589 0.00123,-0.01612 4.131e-4,-0.01634 -4.131e-4,-0.01634 -0.00123,-0.01612 -0.00202,-0.01589 -0.00279,-0.01564 -0.00355,-0.01536 -0.00428,-0.01507 -0.00499,-0.01475 -0.00568,-0.01442 -0.00636,-0.01406 -0.00701,-0.01369 -0.00764,-0.0133 -0.00826,-0.01288 -0.00885,-0.01245 -0.00943,-0.01199 -0.00998,-0.01152 -0.010513,-0.01103 -0.011026,-0.01051 -0.01152,-0.01 -0.011994,-0.0094 -0.012448,-0.0089 -0.012882,-0.0083 -0.013296,-0.0076 -0.01369,-0.007 -0.014064,-0.0064 -0.014418,-0.0057 -0.014753,-0.005 -0.015067,-0.0043 -0.015361,-0.0035 -0.015635,-0.0028 -0.01589,-0.002 -0.016124,-0.0012 -0.016339,-4.13e-4 -0.016339,4.13e-4 -0.016124,0.0012 -0.01589,0.002 -0.015636,0.0028 -0.015361,0.0035 -0.015067,0.0043 -0.014752,0.005 -0.014418,0.0057 -0.014064,0.0064 -0.01369,0.007 -0.013296,0.0076 -0.012882,0.0083 -0.012448,0.0089 -0.011994,0.0094 -0.01152,0.01 -0.011026,0.01051 -0.010513,0.01103 -0.00998,0.01152 -0.00943,0.01199 -0.00885,0.01245 -0.00826,0.01288 -0.00764,0.0133 -0.00701,0.01369 -0.00636,0.01406 -0.00568,0.01442 -0.00499,0.01475 -0.00428,0.01507 -0.00355,0.01536 -0.00279,0.01564 -0.00202,0.01589 -0.00123,0.01612 -4.131e-4,0.01634 4.131e-4,0.01634 0.00123,0.01612 0.00202,0.01589 0.00279,0.01564 0.00355,0.01536 0.00428,0.01507 0.00499,0.01475 0.00568,0.01442 0.00636,0.01406 0.00701,0.01369 0.00764,0.0133 0.00826,0.01288 0.00885,0.01245 0.00943,0.01199 0.00998,0.01152 0.010513,0.01103 0.011026,0.01051 0.01152,0.01 0.011994,0.0094 0.012448,0.0089 0.012882,0.0083 0.013296,0.0076 0.01369,0.007 0.014064,0.0064 0.014418,0.0057 0.014752,0.005 0.015067,0.0043 0.015361,0.0035 0.015636,0.0028 0.01589,0.002 0.016124,0.0012 z"
       fill="none"
       shaper:cutDepth="0"
       shaper:pathType="guide"
       stroke="#646464"
       transform="matrix(1,0,0,-1,17.71282,24.885025)"
       vector-effect="non-scaling-stroke"
       id="path987"
       style="stroke:#ff0000;stroke-opacity:1" /></g></svg>
