<?xml version="1.0" encoding="UTF-8" standalone="no"?>
<svg
   xmlns:shaper="http://www.shapertools.com/namespaces/shaper"
   xmlns:dc="http://purl.org/dc/elements/1.1/"
   xmlns:cc="http://creativecommons.org/ns#"
   xmlns:rdf="http://www.w3.org/1999/02/22-rdf-syntax-ns#"
   xmlns:svg="http://www.w3.org/2000/svg"
   xmlns="http://www.w3.org/2000/svg"
   xmlns:sodipodi="http://sodipodi.sourceforge.net/DTD/sodipodi-0.dtd"
   xmlns:inkscape="http://www.inkscape.org/namespaces/inkscape"
   width="28cm"
   height="18cm"
   viewBox="0 0 280 180"
   version="1.1"
   id="svg2205"
   inkscape:version="1.0.1 (3bc2e813f5, 2020-09-07)"
   sodipodi:docname="birdhouse_part4.svg">
  <defs
     id="defs2199" />
  <sodipodi:namedview
     id="base"
     pagecolor="#ffffff"
     bordercolor="#666666"
     borderopacity="1.0"
     inkscape:pageopacity="0.0"
     inkscape:pageshadow="2"
     inkscape:zoom="0.35"
     inkscape:cx="400"
     inkscape:cy="560"
     inkscape:document-units="cm"
     inkscape:current-layer="layer1"
     inkscape:document-rotation="0"
     showgrid="false"
     units="cm"
     inkscape:window-width="1920"
     inkscape:window-height="1017"
     inkscape:window-x="-8"
     inkscape:window-y="-8"
     inkscape:window-maximized="1" />
  <metadata
     id="metadata2202">
    <rdf:RDF>
      <cc:Work
         rdf:about="">
        <dc:format>image/svg+xml</dc:format>
        <dc:type
           rdf:resource="http://purl.org/dc/dcmitype/StillImage" />
        <dc:title></dc:title>
      </cc:Work>
    </rdf:RDF>
  </metadata>
  <g
     inkscape:label="Calque 1"
     inkscape:groupmode="layer"
     id="layer1">
    <g
       id="g1005"
       transform="matrix(0,-10,10,0,3.975535,304.9879)"
       style="stroke:#ff0000;stroke-opacity:1">
      <path
         d="m 10.267798,22.983817 v 0.148206 0 l 7.76e-4,0.01534 0.0023,0.0149 0.0037,0.01438 0.0051,0.01379 0.0063,0.01312 0.0075,0.01237 0.0086,0.01155 0.0097,0.01066 0.01066,0.0097 0.01156,0.0086 0.01238,0.0075 0.01312,0.0063 0.01379,0.005 0.01439,0.0037 0.0149,0.0023 0.01535,7.75e-4 h 0.05002 V 23.43015 H -1.3986051 l -0.4768709,0.02212 -0.4534429,0.06401 -0.4248503,0.102662 -0.3906732,0.137943 -0.3006196,0.142283 -0.2685097,0.163226 -0.1626094,0.182249 -0.1946487,0.23447 -0.2707146,0.405832 h -0.5002953 v -0.700454 h 0.5002953 v -0.700458 h -0.5002953 v -0.700458 h 0.5002953 V 22.0832 h -0.5002953 v -0.700457 h 0.5002953 V 20.682285 H -4.8418397 V 19.98183 h 0.5002953 v -0.700391 h -0.5002953 v -0.700454 h 0.5002953 v -0.700458 h -0.5002953 v -0.700458 h 0.5002953 v -0.700454 h -0.5002953 v -0.700458 h 0.5002953 v -0.700458 h -0.5002953 v -0.700454 h 0.5002953 v -0.700388 h -0.5002953 v -0.700458 h 0.5002953 v -0.700457 h -0.5002953 v -0.700458 h 0.5002953 v -0.700455 h -0.5002953 v -0.700458 h 0.5002953 l 0.3059924,0.405832 0.1593709,0.234404 0.1626094,0.182248 0.2685097,0.163297 0.3006196,0.142283 0.3906732,0.137872 0.4248503,0.102733 0.4534429,0.06401 0.4768709,0.02205 H 10.467957 v 0.148143 h -0.05002 v 0 l -0.01685,8.51e-4 -0.01637,0.0025 -0.0158,0.0041 -0.01514,0.0055 -0.01441,0.0069 -0.01359,0.0083 -0.01269,0.0095 -0.01171,0.01064 -0.01064,0.01171 -0.0095,0.01269 -0.0083,0.0136 -0.0069,0.01441 -0.0055,0.01515 -0.0041,0.0158 -0.0025,0.01637 -8.52e-4,0.01685 v 0.162747 l -0.231994,0.01454 -0.2088051,0.04795 -0.1774931,0.07672 -0.1075196,0.07345 -0.081721,0.08513 -0.052225,0.0945 -0.019293,0.102214 0.019293,0.102147 0.052225,0.0945 0.081721,0.08512 0.1075196,0.07345 0.1774931,0.07672 0.2088051,0.04799 0.231994,0.01451 v 0.109862 l -0.231994,0.01447 -0.2088051,0.04796 -0.1774931,0.07672 -0.1075196,0.07355 -0.081721,0.08513 -0.052225,0.0945 -0.019293,0.102112 0.019293,0.10215 0.052225,0.0946 0.081721,0.08503 0.1075196,0.07355 0.1774931,0.07672 0.2088051,0.04796 0.231994,0.01447 v 0.109933 l -0.231994,0.01443 -0.2088051,0.04799 -0.1774931,0.07672 -0.1075196,0.07352 -0.081721,0.08506 -0.052225,0.09457 -0.019293,0.102147 0.019293,0.102146 0.052225,0.0945 0.081721,0.08513 0.1075196,0.07352 0.1774931,0.07672 0.2088051,0.04799 0.231994,0.01443 v 0.109865 l -0.231994,0.01454 -0.2088051,0.04796 -0.1774931,0.07672 -0.1075196,0.07345 -0.081721,0.08513 -0.052225,0.0945 -0.019293,0.102214 0.019293,0.10215 0.052225,0.0945 0.081721,0.08513 0.1075196,0.07345 0.1774931,0.07672 0.2088051,0.04799 0.231994,0.01451 v 0.109862 l -0.231994,0.01447 -0.2088051,0.04796 -0.1774931,0.07672 -0.1075196,0.07355 -0.081721,0.08513 -0.052225,0.0945 -0.019293,0.102146 0.019293,0.102115 0.052225,0.0946 0.081721,0.08509 0.1075196,0.07348 0.1774931,0.07672 0.2088051,0.04796 0.231994,0.01447 v 0.109932 l -0.231994,0.01443 -0.2088051,0.04799 -0.1774931,0.07672 -0.1075196,0.07352 -0.081721,0.08506 -0.052225,0.09457 -0.019293,0.102147 0.019293,0.102146 0.052225,0.09457 0.081721,0.08506 0.1075196,0.07352 0.1774931,0.07672 0.2088051,0.04799 0.231994,0.01444 v 0.109865 l -0.231994,0.01454 -0.2088051,0.04796 -0.1774931,0.07672 -0.1075196,0.07345 -0.081721,0.08513 -0.052225,0.0945 -0.019293,0.102217 0.019293,0.102147 0.052225,0.0945 0.081721,0.08513 0.1075196,0.07348 0.1774931,0.07669 0.2088051,0.04799 0.231994,0.01454 v 0.109827 l -0.231994,0.01454 -0.2088051,0.04789 -0.1774931,0.07679 -0.1075196,0.07348 -0.081721,0.08513 -0.052225,0.0945 -0.019293,0.102147 0.019293,0.102115 0.052225,0.0946 0.081721,0.08509 0.1075196,0.07348 0.1774931,0.07672 0.2088051,0.04796 0.231994,0.01447 v 0.109933 l -0.231994,0.01444 -0.2088051,0.04799 -0.1774931,0.07672 -0.1075196,0.07352 -0.081721,0.08506 -0.052225,0.09457 -0.019293,0.102147 0.019293,0.102147 0.052225,0.09457 0.081721,0.08506 0.1075196,0.07352 0.1774931,0.07672 0.2088051,0.04799 0.231994,0.01444 v 0.109865 l -0.231994,0.01454 -0.2088051,0.04796 -0.1774931,0.07672 -0.1075196,0.07348 -0.081721,0.08509 -0.052225,0.0945 -0.019293,0.102218 0.019293,0.102147 0.052225,0.0945 0.081721,0.08513 0.1075196,0.07348 0.1774931,0.07669 0.2088051,0.04799 0.231994,0.01454"
         fill="none"
         shaper:cutDepth="0"
         shaper:pathType="guide"
         stroke="#646464"
         transform="matrix(1,0,0,-1,17.71282,24.885025)"
         vector-effect="non-scaling-stroke"
         id="path915"
         style="stroke:#ff0000;stroke-opacity:1" />
      <path
         d="M -1.5397162,21.632925 V 21.13263 h -2.001326 v 0.500295 z"
         fill="none"
         shaper:cutDepth="0"
         shaper:pathType="guide"
         stroke="#646464"
         transform="matrix(1,0,0,-1,17.71282,24.885025)"
         vector-effect="non-scaling-stroke"
         id="path929"
         style="stroke:#ff0000;stroke-opacity:1" />
      <path
         d="m 0.4615392,21.13263 v 0.500295 H 2.4627946 V 21.13263 Z"
         fill="none"
         shaper:cutDepth="0"
         shaper:pathType="guide"
         stroke="#646464"
         transform="matrix(1,0,0,-1,17.71282,24.885025)"
         vector-effect="non-scaling-stroke"
         id="path931"
         style="stroke:#ff0000;stroke-opacity:1" />
      <path
         d="m -3.5410422,13.92797 v -0.500295 h 2.001326 v 0.500295 z"
         fill="none"
         shaper:cutDepth="0"
         shaper:pathType="guide"
         stroke="#646464"
         transform="matrix(1,0,0,-1,17.71282,24.885025)"
         vector-effect="non-scaling-stroke"
         id="path933"
         style="stroke:#ff0000;stroke-opacity:1" />
      <path
         d="M 0.4615392,13.92797 V 13.427675 H 2.4627946 V 13.92797 Z"
         fill="none"
         shaper:cutDepth="0"
         shaper:pathType="guide"
         stroke="#646464"
         transform="matrix(1,0,0,-1,17.71282,24.885025)"
         vector-effect="non-scaling-stroke"
         id="path939"
         style="stroke:#ff0000;stroke-opacity:1" />
      <path
         d="m -3.9412933,17.680368 v 0 l -0.015333,-7.75e-4 -0.014893,-0.0023 -0.014377,-0.0037 -0.013784,-0.005 -0.013117,-0.0063 -0.012373,-0.0075 -0.011554,-0.0086 -0.01066,-0.0097 -0.00969,-0.01066 -0.00864,-0.01155 -0.00752,-0.01237 -0.00632,-0.01312 -0.00505,-0.01379 -0.0037,-0.01438 -0.00228,-0.0149 -7.754e-4,-0.01534 7.754e-4,-0.01534 0.00228,-0.0149 0.0037,-0.01438 0.00505,-0.01379 0.00632,-0.01312 0.00752,-0.01237 0.00864,-0.01155 0.00969,-0.01066 0.01066,-0.0097 0.011554,-0.0086 0.012373,-0.0075 0.013117,-0.0063 0.013784,-0.005 0.014377,-0.0037 0.014893,-0.0023 0.015333,-7.75e-4 0.015346,7.75e-4 0.014904,0.0023 0.014386,0.0037 0.013793,0.005 0.013124,0.0063 0.012379,0.0075 0.011559,0.0086 0.010663,0.0097 0.00969,0.01066 0.00864,0.01155 0.00752,0.01237 0.00632,0.01312 0.00505,0.01379 0.0037,0.01438 0.00228,0.0149 7.755e-4,0.01534 -7.755e-4,0.01534 -0.00228,0.0149 -0.0037,0.01438 -0.00505,0.01379 -0.00632,0.01312 -0.00752,0.01237 -0.00864,0.01155 -0.00969,0.01066 -0.010663,0.0097 -0.011559,0.0086 -0.012379,0.0075 -0.013124,0.0063 -0.013793,0.005 -0.014386,0.0037 -0.014904,0.0023 z"
         fill="none"
         shaper:cutDepth="0"
         shaper:pathType="guide"
         stroke="#646464"
         transform="matrix(1,0,0,-1,17.71282,24.885025)"
         vector-effect="non-scaling-stroke"
         id="path949"
         style="stroke:#ff0000;stroke-opacity:1" />
      <path
         d="m 4.4641206,21.13263 v 0.500295 H 6.4653758 V 21.13263 Z"
         fill="none"
         shaper:cutDepth="0"
         shaper:pathType="guide"
         stroke="#646464"
         transform="matrix(1,0,0,-1,17.71282,24.885025)"
         vector-effect="non-scaling-stroke"
         id="path951"
         style="stroke:#ff0000;stroke-opacity:1" />
      <path
         d="M 6.4653758,13.92797 H 4.4641206 v -0.500295 h 2.0012552 z"
         fill="none"
         shaper:cutDepth="0"
         shaper:pathType="guide"
         stroke="#646464"
         transform="matrix(1,0,0,-1,17.71282,24.885025)"
         vector-effect="non-scaling-stroke"
         id="path953"
         style="stroke:#ff0000;stroke-opacity:1" />
    </g>
    <g
       id="g2516"
       transform="matrix(0,10,-10,0,438.65027,-324.59694)"
       style="stroke:#ff0000;stroke-opacity:1">
      <path
         d="m 30.365967,6.8091613 v 0.148209 0 l 7.73e-4,0.015346 0.0023,0.014904 0.0037,0.014386 0.005,0.013793 0.0063,0.013124 0.0075,0.012379 0.0086,0.011559 0.0097,0.010663 0.01065,0.00969 0.01155,0.00864 0.01237,0.00752 0.01312,0.00632 0.0138,0.00505 0.0144,0.0037 0.01493,0.00228 0.01538,7.755e-4 h 0.05002 V 7.2556474 H 18.558386 l -0.476871,0.022049 -0.453443,0.064008 -0.42485,0.1027324 -0.390673,0.1378726 -0.30062,0.1422824 -0.268509,0.1633008 -0.198096,0.182245 -0.136147,0.2162457 -0.152619,0.4239895 V 8.0099145 H 15.256259 V 7.3094601 h 0.500299 V 6.6090022 H 15.256259 V 5.9085443 h 0.500299 V 5.208157 H 15.256259 V 4.5076991 h 0.500299 V 3.8072447 H 15.256259 V 3.1067869 h 0.500299 V 2.406329 H 15.256259 V 1.7058746 h 0.500299 V 1.0054167 H 15.256259 V 0.3049598 h 0.500299 v -0.7003884 h -0.500299 v -0.7004579 h 0.500299 v -0.7004544 h -0.500299 v -0.7004579 h 0.500299 v -0.700458 h -0.500299 v -0.7004543 h 0.500299 v -0.700458 H 15.256259 V -5.298627 h 0.500299 v -0.7003873 l 0.136666,0.3768266 0.1521,0.2634121 0.198096,0.182245 0.268509,0.1632973 0.30062,0.1422824 0.390673,0.1378726 0.42485,0.1026618 0.453443,0.064012 0.476871,0.022116 h 12.007673 v 0.148142 h -0.05002 v 0 l -0.01538,7.754e-4 -0.01493,0.00228 -0.0144,0.0037 -0.0138,0.00505 -0.01312,0.00632 -0.01237,0.00752 -0.01155,0.00864 -0.01065,0.00969 -0.0097,0.010659 -0.0086,0.011554 -0.0075,0.012373 -0.0063,0.013117 -0.005,0.013785 -0.0037,0.014377 -0.0023,0.014893 -7.73e-4,0.015334 v 0.1771121 l -0.23206,0.014467 -0.20881,0.047957 -0.177422,0.076722 -0.107763,0.073554 -0.08154,0.085023 -0.05237,0.094604 -0.01915,0.1021468 0.01915,0.1021115 0.05237,0.094499 0.08154,0.085129 0.107763,0.073554 0.177422,0.076722 0.20881,0.047953 0.23206,0.014471 v 0.1098656 l -0.23206,0.014503 -0.20881,0.047988 -0.177422,0.076726 -0.107763,0.073448 -0.08154,0.085129 -0.05237,0.094499 -0.01915,0.1022138 0.01915,0.1021468 0.05237,0.094502 0.08154,0.085125 0.107763,0.073452 0.177422,0.076722 0.20881,0.047957 0.23206,0.014538 v 0.1098621 l -0.23206,0.014436 -0.20881,0.047992 -0.177422,0.076722 -0.107763,0.073551 -0.08154,0.085094 -0.05237,0.094499 -0.01915,0.1021468 0.01915,0.1021503 0.05237,0.094566 0.08154,0.085062 0.107763,0.073551 0.177422,0.0766869 0.20881,0.0479919 0.23206,0.0144356 v 0.1099326 l -0.23206,0.0144675 -0.20881,0.0479566 -0.177422,0.0767221 -0.107763,0.0735541 -0.08154,0.085023 -0.05237,0.0946044 -0.01915,0.1021465 0.01915,0.1021126 0.05237,0.0945335 0.08154,0.0850937 0.107763,0.0735529 0.177422,0.0767221 0.20881,0.0479559 0.23206,0.0144692 V 0.326219 l -0.23206,0.0145037 -0.20881,0.0479919 -0.177422,0.0767221 -0.107763,0.0734484 -0.08154,0.0851288 -0.05237,0.0944986 -0.01915,0.1022138 0.01915,0.1021503 0.05237,0.0944986 0.08154,0.085129 0.107763,0.073448 0.177422,0.076722 0.20881,0.047957 0.23206,0.014538 v 0.1098621 l -0.23206,0.014471 -0.20881,0.047957 -0.177422,0.076722 -0.107763,0.073551 -0.08154,0.085094 -0.05237,0.094499 -0.01915,0.1021503 0.01915,0.1021469 0.05237,0.094566 0.08154,0.085129 0.107763,0.073484 0.177422,0.076722 0.20881,0.047957 0.23206,0.014436 v 0.1099326 l -0.23206,0.014467 -0.20881,0.047957 -0.177422,0.076722 -0.107763,0.073554 -0.08154,0.085023 -0.05237,0.094604 -0.01915,0.1021468 0.01915,0.1021115 0.05237,0.094604 0.08154,0.085023 0.107763,0.073554 0.177422,0.076722 0.20881,0.047957 0.23206,0.014467 V 3.622622 l -0.23206,0.014503 -0.20881,0.047992 -0.177422,0.076722 -0.107763,0.073448 -0.08154,0.085129 -0.05237,0.094499 -0.01915,0.1022174 0.01915,0.1021468 0.05237,0.094499 0.08154,0.085129 0.107763,0.073448 0.177422,0.076722 0.20881,0.047988 0.23206,0.014506 v 0.109862 l -0.23206,0.014538 -0.20881,0.047889 -0.177422,0.076789 -0.107763,0.073484 -0.08154,0.085094 -0.05237,0.094502 -0.01915,0.1021468 0.01915,0.1021468 0.05237,0.094566 0.08154,0.085129 0.107763,0.073484 0.177422,0.076722 0.20881,0.047957 0.23206,0.014436 v 0.1099326 l -0.23206,0.014471 -0.20881,0.047953 -0.177422,0.076722 -0.107763,0.073554 -0.08154,0.085058 -0.05237,0.094569 -0.01915,0.1021469 0.01915,0.1021467 0.05237,0.094569 0.08154,0.085023 0.107763,0.073554 0.177422,0.076722 0.20881,0.047957 z"
         fill="none"
         shaper:cutDepth="0"
         shaper:pathType="guide"
         stroke="#646464"
         transform="matrix(1,0,0,-1,17.71282,24.885025)"
         vector-effect="non-scaling-stroke"
         id="path1861"
         style="stroke:#ff0000;stroke-opacity:1" />
      <path
         d="m 24.562223,-2.2466159 v -0.5003659 h 2.001255 v 0.5003659 z"
         fill="none"
         shaper:cutDepth="0"
         shaper:pathType="guide"
         stroke="#646464"
         transform="matrix(1,0,0,-1,17.71282,24.885025)"
         vector-effect="non-scaling-stroke"
         id="path1897"
         style="stroke:#ff0000;stroke-opacity:1" />
      <path
         d="m 16.262709,1.5057826 v 0 l -0.01538,-7.755e-4 -0.01493,-0.00228 -0.0144,-0.0037 -0.0138,-0.00505 -0.01313,-0.00632 -0.01238,-0.00752 -0.01155,-0.00864 -0.01065,-0.00969 -0.0097,-0.010663 -0.0086,-0.011559 -0.0075,-0.012379 -0.0063,-0.013124 -0.005,-0.013793 -0.0037,-0.014386 -0.0023,-0.014904 -7.73e-4,-0.015346 7.73e-4,-0.015333 0.0023,-0.014893 0.0037,-0.014377 0.005,-0.013785 0.0063,-0.013117 0.0075,-0.012373 0.0086,-0.011554 0.0097,-0.010659 0.01065,-0.00969 0.01155,-0.00864 0.01238,-0.00752 0.01313,-0.00632 0.0138,-0.00505 0.0144,-0.0037 0.01493,-0.00228 0.01538,-7.755e-4 0.01533,7.755e-4 0.01489,0.00228 0.01438,0.0037 0.01378,0.00505 0.01312,0.00632 0.01237,0.00752 0.01155,0.00864 0.01066,0.00969 0.0097,0.010659 0.0086,0.011554 0.0075,0.012373 0.0063,0.013117 0.0051,0.013785 0.0037,0.014377 0.0023,0.014893 7.76e-4,0.015333 -7.76e-4,0.015346 -0.0023,0.014904 -0.0037,0.014386 -0.0051,0.013793 -0.0063,0.013124 -0.0075,0.012379 -0.0086,0.011559 -0.0097,0.010663 -0.01066,0.00969 -0.01155,0.00864 -0.01237,0.00752 -0.01312,0.00632 -0.01378,0.00505 -0.01438,0.0037 -0.01489,0.00228 z"
         fill="none"
         shaper:cutDepth="0"
         shaper:pathType="guide"
         stroke="#646464"
         transform="matrix(1,0,0,-1,17.71282,24.885025)"
         vector-effect="non-scaling-stroke"
         id="path1899"
         style="stroke:#ff0000;stroke-opacity:1" />
      <path
         d="m 20.559642,-2.2466159 v -0.5003659 h 2.001322 v 0.5003659 z"
         fill="none"
         shaper:cutDepth="0"
         shaper:pathType="guide"
         stroke="#646464"
         transform="matrix(1,0,0,-1,17.71282,24.885025)"
         vector-effect="non-scaling-stroke"
         id="path1901"
         style="stroke:#ff0000;stroke-opacity:1" />
      <path
         d="M 26.563478,5.4582729 V 4.9579742 h -2.001255 v 0.5002987 z"
         fill="none"
         shaper:cutDepth="0"
         shaper:pathType="guide"
         stroke="#646464"
         transform="matrix(1,0,0,-1,17.71282,24.885025)"
         vector-effect="non-scaling-stroke"
         id="path1903"
         style="stroke:#ff0000;stroke-opacity:1" />
      <path
         d="m 16.557127,5.4582729 h 2.001259 V 4.9579742 h -2.001259 z"
         fill="none"
         shaper:cutDepth="0"
         shaper:pathType="guide"
         stroke="#646464"
         transform="matrix(1,0,0,-1,17.71282,24.885025)"
         vector-effect="non-scaling-stroke"
         id="path1907"
         style="stroke:#ff0000;stroke-opacity:1" />
      <path
         d="m 20.559642,5.4582729 h 2.001322 V 4.9579742 h -2.001322 z"
         fill="none"
         shaper:cutDepth="0"
         shaper:pathType="guide"
         stroke="#646464"
         transform="matrix(1,0,0,-1,17.71282,24.885025)"
         vector-effect="non-scaling-stroke"
         id="path1909"
         style="stroke:#ff0000;stroke-opacity:1" />
      <path
         d="m 18.558386,-2.2466159 h -2.001259 v -0.5003659 h 2.001259 z"
         fill="none"
         shaper:cutDepth="0"
         shaper:pathType="guide"
         stroke="#646464"
         transform="matrix(1,0,0,-1,17.71282,24.885025)"
         vector-effect="non-scaling-stroke"
         id="path1911"
         style="stroke:#ff0000;stroke-opacity:1" />
    </g>
  </g>
</svg>
