<?xml version="1.0" encoding="UTF-8" standalone="no"?>
<svg
   xmlns:shaper="http://www.shapertools.com/namespaces/shaper"
   xmlns:dc="http://purl.org/dc/elements/1.1/"
   xmlns:cc="http://creativecommons.org/ns#"
   xmlns:rdf="http://www.w3.org/1999/02/22-rdf-syntax-ns#"
   xmlns:svg="http://www.w3.org/2000/svg"
   xmlns="http://www.w3.org/2000/svg"
   xmlns:sodipodi="http://sodipodi.sourceforge.net/DTD/sodipodi-0.dtd"
   xmlns:inkscape="http://www.inkscape.org/namespaces/inkscape"
   enable-background="new 0 0 48.2788799 30.9120146"
   height="18cm"
   shaper:fusionaddin="version:1.5.0"
   version="1.1"
   viewBox="0 0 27.999999 18.000001"
   width="28cm"
   x="0cm"
   xml:space="preserve"
   y="0cm"
   id="svg1923"
   sodipodi:docname="birdhouse_part2.svg"
   inkscape:version="1.0.1 (3bc2e813f5, 2020-09-07)"><metadata
     id="metadata1929"><rdf:RDF><cc:Work
         rdf:about=""><dc:format>image/svg+xml</dc:format><dc:type
           rdf:resource="http://purl.org/dc/dcmitype/StillImage" /><dc:title></dc:title></cc:Work></rdf:RDF></metadata><defs
     id="defs1927" /><sodipodi:namedview
     pagecolor="#ffffff"
     bordercolor="#666666"
     borderopacity="1"
     objecttolerance="10"
     gridtolerance="10"
     guidetolerance="10"
     inkscape:pageopacity="0"
     inkscape:pageshadow="2"
     inkscape:window-width="1920"
     inkscape:window-height="1017"
     id="namedview1925"
     showgrid="false"
     inkscape:document-units="cm"
     inkscape:zoom="0.66530988"
     inkscape:cx="912.35681"
     inkscape:cy="420.1418"
     inkscape:window-x="-8"
     inkscape:window-y="-8"
     inkscape:window-maximized="1"
     inkscape:current-layer="svg1923"
     inkscape:document-rotation="0" /><g
     id="g2506"
     transform="rotate(180,16.501396,15.593497)"
     style="stroke:#ff0000;stroke-opacity:1"><path
       d="m -3.8900629,0.2466689 0.3537408,0.3537412 1.4151752,-1.415108 -0.3537409,-0.3538079 1.4150375,-1.4151081 0.3537444,0.3537408 1.4151751,-1.4150375 -0.3537408,-0.3538114 1.4150375,-1.4151081 0.3538114,0.3537444 0.7074853,-0.7076228 0.4877576,-0.00393 -0.1063872,0.504571 1.9584704,0.4120339 0.1030076,-0.4894792 1.9551578,0.4271892 -0.1061755,0.504638 1.9585375,0.4120339 0.1029371,-0.4895497 1.9551611,0.4272633 -0.103007,0.4896837 1.958537,0.4120339 0.09963,-0.4745955 0.977579,0.2135964 v 1.0006612 H 13.57326 v 2.0012554 h 0.499608 v 2.001326 h -0.4994 v 2.0012553 h 0.4994 V 5.5835337 H 13.572641 V 7.5848596 H 14.07287 V 8.5854538 L 13.095291,8.7989796 12.992283,8.3095004 11.033813,8.7215343 11.140129,9.2262429 9.1849679,9.653365 9.0786547,9.1489316 7.1201844,9.5609655 7.2296688,10.080487 5.274511,10.50768 5.1681944,10.003246 3.2096569,10.41528 3.3194202,10.934802 2.8317296,10.930805 2.1242443,10.223253 1.7703659,10.576994 0.3553284,9.1619564 0.7090692,8.8082118 -0.7061059,7.3930367 -1.0598503,7.7467811 -2.4748878,6.331673 -2.1211469,5.9778616 -3.5363221,4.5628206 -3.8900629,4.916565 -5.305171,3.501457 -4.9514301,3.1476456 -5.5174586,2.5816842 -4.9513596,2.0155888 -5.305171,1.6618444 Z"
       fill="none"
       shaper:cutDepth="0"
       shaper:pathType="guide"
       stroke="#646464"
       transform="matrix(1,0,0,-1,17.71282,24.885025)"
       vector-effect="non-scaling-stroke"
       id="path1851"
       style="stroke:#ff0000;stroke-opacity:1" /><path
       d="M 6.7603792,4.9753378 6.9210589,5.449143 6.2577061,5.6741059 6.0970264,5.2003041 Z"
       fill="none"
       shaper:cutDepth="0"
       shaper:pathType="guide"
       stroke="#646464"
       transform="matrix(1,0,0,-1,17.71282,24.885025)"
       vector-effect="non-scaling-stroke"
       id="path1869"
       style="stroke:#ff0000;stroke-opacity:1" /><path
       d="m 5.4673675,4.182692 v 0 l -0.04132,-5.229e-4 -0.041062,-0.00156 -0.040792,-0.00259 -0.040509,-0.0036 -0.040213,-0.0046 -0.039905,-0.00558 -0.039585,-0.00656 -0.039252,-0.00752 -0.038906,-0.00847 -0.038547,-0.00941 L 5.0290998,4.121957 4.9913067,4.1107141 4.9539096,4.098572 4.9169212,4.0855434 4.880354,4.0716408 4.8442206,4.0568769 4.8085336,4.0412641 4.7733055,4.0248151 4.7385489,4.0075423 4.7042764,3.9894585 4.6705006,3.9705761 4.637234,3.9509078 4.6044892,3.930466 4.5722792,3.909263 4.5406162,3.887312 4.5095122,3.864626 4.4789802,3.841216 4.4490332,3.817096 4.4196832,3.792278 4.3909432,3.766775 4.3628252,3.740599 4.3353422,3.713763 4.3085072,3.686279 4.2823322,3.65816 4.2568302,3.629418 4.2320132,3.600066 4.2078942,3.570117 4.1844862,3.539583 4.1618012,3.508477 4.1398512,3.476811 4.1186492,3.444598 4.0982082,3.411851 4.0785402,3.378581 4.0596582,3.344802 4.0415752,3.310526 4.0243032,3.275766 4.0078542,3.240535 3.9922422,3.204844 3.9774782,3.168707 3.9635762,3.132136 3.9505482,3.095144 3.9384062,3.057743 3.9271632,3.019946 3.9168322,2.981765 l -0.00941,-0.038552 -0.00847,-0.038911 -0.00752,-0.039257 -0.00656,-0.03959 -0.00558,-0.039911 -0.0046,-0.040219 -0.0036,-0.040515 -0.00259,-0.040798 -0.00156,-0.041068 -5.229e-4,-0.041326 5.229e-4,-0.04132 0.00156,-0.041062 0.00259,-0.040792 0.0036,-0.040509 0.0046,-0.040214 0.00558,-0.039906 0.00656,-0.039585 0.00752,-0.039252 0.00847,-0.038907 0.00941,-0.038548 0.010331,-0.038177 0.011243,-0.037794 0.012142,-0.037398 0.013028,-0.036989 0.013902,-0.036568 0.014764,-0.036134 0.015612,-0.035688 0.016449,-0.035229 0.017272,-0.034758 0.018083,-0.034274 0.018882,-0.033777 0.019668,-0.033268 0.020441,-0.032746 0.021202,-0.032212 0.02195,-0.031665 0.022685,-0.031105 0.023408,-0.030533 0.024119,-0.029949 0.024817,-0.029351 0.025502,-0.028741 0.026175,-0.028119 0.026835,-0.027484 0.027483,-0.026837 0.028118,-0.026176 0.02874,-0.025504 0.02935,-0.024818 0.029947,-0.02412 0.030532,-0.02341 0.031104,-0.022687 0.031663,-0.021951 0.03221,-0.021203 0.032745,-0.020442 0.033267,-0.019669 0.033776,-0.018883 0.034272,-0.018085 0.034757,-0.017273 0.035228,-0.01645 0.035687,-0.015614 0.036133,-0.014765 0.036567,-0.013903 0.036988,-0.013029 0.037397,-0.012143 0.037793,-0.011244 0.038177,-0.010332 0.038547,-0.00941 0.038906,-0.00847 0.039252,-0.00752 0.039585,-0.006559 0.039905,-0.005585 0.040213,-0.004598 0.040509,-0.003598 0.040792,-0.002585 0.041062,-0.00156 0.04132,-5.229e-4 0.041329,5.229e-4 0.041071,0.00156 0.0408,0.002585 0.040517,0.003598 0.040221,0.004598 0.039912,0.005585 0.039591,0.006559 0.039258,0.00752 0.038912,0.00847 0.038553,0.00941 0.038182,0.010332 0.037798,0.011244 0.037401,0.012143 0.036992,0.013029 0.036571,0.013903 0.036136,0.014765 0.03569,0.015614 0.035231,0.01645 0.034759,0.017273 0.034274,0.018085 0.033777,0.018883 0.033268,0.019669 0.032746,0.020442 0.032211,0.021203 0.031664,0.021951 0.031104,0.022687 0.030532,0.02341 0.029947,0.02412 0.029349,0.024818 0.02874,0.025504 0.028117,0.026176 0.027482,0.026837 0.026834,0.027484 0.026174,0.028119 0.025501,0.028741 0.024815,0.029351 0.024118,0.029949 0.023407,0.030533 0.022684,0.031105 0.021948,0.031665 0.0212,0.032212 0.020439,0.032746 0.019666,0.033268 0.01888,0.033777 0.018081,0.034274 0.01727,0.034758 0.016447,0.035229 0.015611,0.035688 0.014762,0.036134 0.013901,0.036568 0.013027,0.036989 0.01214,0.037398 0.011241,0.037794 0.010329,0.038177 0.00941,0.038548 0.00847,0.038907 0.00752,0.039252 0.00656,0.039585 0.00558,0.039906 0.0046,0.040214 0.0036,0.040509 0.00258,0.040792 0.00156,0.041062 5.228e-4,0.04132 -5.228e-4,0.041326 -0.00156,0.041068 -0.00258,0.040798 -0.0036,0.040515 -0.0046,0.040219 -0.00558,0.039911 -0.00656,0.03959 -0.00752,0.039257 -0.00847,0.038911 -0.00941,0.038552 -0.010329,0.038181 -0.011241,0.037797 -0.01214,0.037401 -0.013027,0.036992 -0.013901,0.036571 -0.014762,0.036137 -0.015611,0.035691 -0.016447,0.035231 -0.01727,0.03476 -0.018081,0.034276 -0.01888,0.033779 -0.019666,0.03327 -0.020439,0.032747 -0.0212,0.032213 -0.021948,0.031666 -0.022684,0.031106 -0.023407,0.030534 -0.024118,0.029949 -0.024815,0.029352 -0.025501,0.028742 -0.026174,0.028119 -0.026834,0.027484 -0.027482,0.026836 -0.028117,0.026176 -0.02874,0.025503 -0.029349,0.024818 -0.029947,0.02412 -0.030532,0.02341 -0.031104,0.022686 -0.031664,0.021951 -0.032211,0.021203 -0.032746,0.020442 -0.033268,0.019668 -0.033777,0.018882 -0.034274,0.018084 -0.034759,0.017273 -0.035231,0.016449 -0.03569,0.015613 -0.036136,0.014764 -0.036571,0.013903 -0.036992,0.013029 -0.037401,0.012142 -0.037798,0.011243 -0.038182,0.010331 -0.038553,0.00941 -0.038912,0.00847 -0.039258,0.00752 -0.039591,0.00656 -0.039912,0.00558 -0.040221,0.0046 -0.040517,0.0036 -0.0408,0.00259 -0.041071,0.00156 z"
       fill="none"
       shaper:cutDepth="0"
       shaper:pathType="guide"
       stroke="#646464"
       transform="matrix(1,0,0,-1,17.71282,24.885025)"
       vector-effect="non-scaling-stroke"
       id="path1871"
       style="stroke:#ff0000;stroke-opacity:1" /><path
       d="m -2.3768756,2.5816842 v 0 l -8.263e-4,-0.032678 -0.00245,-0.032249 -0.00404,-0.03178 -0.00558,-0.031271 -0.00709,-0.030722 -0.00856,-0.030133 -0.00998,-0.029505 -0.01137,-0.028837 -0.012717,-0.028128 -0.014024,-0.02738 -0.015291,-0.026592 -0.016518,-0.025764 -0.017705,-0.024896 -0.018852,-0.023988 -0.019959,-0.023041 -0.021026,-0.022053 -0.022054,-0.021025 -0.023041,-0.019958 -0.023989,-0.018851 -0.024896,-0.017704 -0.025764,-0.016517 -0.026592,-0.01529 -0.02738,-0.014023 -0.028128,-0.012716 -0.028836,-0.01137 -0.029504,-0.00998 -0.030132,-0.00856 -0.030721,-0.00709 -0.031269,-0.00558 -0.031778,-0.00404 -0.032246,-0.00245 -0.032675,-8.263e-4 -0.032675,8.263e-4 -0.032246,0.00245 -0.031778,0.00404 -0.031269,0.00558 -0.03072,0.00709 -0.030132,0.00856 -0.029504,0.00998 -0.028836,0.01137 -0.028128,0.012716 -0.02738,0.014023 -0.026592,0.01529 -0.025764,0.016517 -0.024896,0.017704 -0.023989,0.018851 -0.023041,0.019958 -0.022054,0.021025 -0.021026,0.022053 -0.019959,0.023041 -0.018852,0.023988 -0.017705,0.024896 -0.016518,0.025764 -0.015291,0.026592 -0.014024,0.02738 -0.012717,0.028128 -0.011371,0.028837 -0.00998,0.029505 -0.00856,0.030133 -0.00709,0.030722 -0.00558,0.031271 -0.00404,0.03178 -0.00245,0.032249 -8.264e-4,0.032678 8.264e-4,0.032678 0.00245,0.032249 0.00404,0.03178 0.00558,0.031271 0.00709,0.030722 0.00856,0.030134 0.00998,0.029505 0.011371,0.028837 0.012717,0.028128 0.014024,0.02738 0.015291,0.026592 0.016518,0.025764 0.017705,0.024896 0.018852,0.023988 0.019959,0.023041 0.021026,0.022053 0.022054,0.021025 0.023041,0.019958 0.023989,0.018851 0.024896,0.017704 0.025764,0.016517 0.026592,0.01529 0.02738,0.014023 0.028128,0.012716 0.028836,0.01137 0.029504,0.00998 0.030132,0.00856 0.03072,0.00709 0.031269,0.00558 0.031778,0.00404 0.032246,0.00245 0.032675,8.262e-4 0.032675,-8.262e-4 0.032246,-0.00245 0.031778,-0.00404 0.031269,-0.00558 0.030721,-0.00709 0.030132,-0.00856 0.029504,-0.00998 0.028836,-0.01137 0.028128,-0.012716 0.02738,-0.014023 0.026592,-0.01529 0.025764,-0.016517 0.024896,-0.017704 0.023989,-0.018851 0.023041,-0.019958 0.022054,-0.021025 0.021026,-0.022053 0.019959,-0.023041 0.018852,-0.023988 0.017705,-0.024896 0.016518,-0.025764 0.015291,-0.026592 0.014024,-0.02738 0.012717,-0.028128 0.01137,-0.028837 0.00998,-0.029505 0.00856,-0.030134 0.00709,-0.030722 0.00558,-0.031271 0.00404,-0.03178 0.00245,-0.032249 z"
       fill="none"
       shaper:cutDepth="0"
       shaper:pathType="guide"
       stroke="#646464"
       transform="matrix(1,0,0,-1,17.71282,24.885025)"
       vector-effect="non-scaling-stroke"
       id="path1875"
       style="stroke:#ff0000;stroke-opacity:1" /><path
       d="M 8.5032178,5.0831678 H 8.0029224 V 3.3529376 h 0.5002954 z"
       fill="none"
       shaper:cutDepth="0"
       shaper:pathType="guide"
       stroke="#646464"
       transform="matrix(1,0,0,-1,17.71282,24.885025)"
       vector-effect="non-scaling-stroke"
       id="path1877"
       style="stroke:#ff0000;stroke-opacity:1" /><path
       d="m 6.9210589,-0.2858396 -0.6633528,-0.224965 -0.1606797,0.4738042 0.6633528,0.224965 z"
       fill="none"
       shaper:cutDepth="0"
       shaper:pathType="guide"
       stroke="#646464"
       transform="matrix(1,0,0,-1,17.71282,24.885025)"
       vector-effect="non-scaling-stroke"
       id="path1879"
       style="stroke:#ff0000;stroke-opacity:1" /><path
       d="M 4.1600895,-0.1685339 3.0027104,0.9888467 2.6489343,0.6350706 3.8063487,-0.5223122 Z"
       fill="none"
       shaper:cutDepth="0"
       shaper:pathType="guide"
       stroke="#646464"
       transform="matrix(1,0,0,-1,17.71282,24.885025)"
       vector-effect="non-scaling-stroke"
       id="path1881"
       style="stroke:#ff0000;stroke-opacity:1" /><path
       d="M 8.5032178,1.8103638 H 8.0029224 v -1.730231 h 0.5002954 z"
       fill="none"
       shaper:cutDepth="0"
       shaper:pathType="guide"
       stroke="#646464"
       transform="matrix(1,0,0,-1,17.71282,24.885025)"
       vector-effect="non-scaling-stroke"
       id="path1889"
       style="stroke:#ff0000;stroke-opacity:1" /><path
       d="M 5.743148,-2.4592139 6.0968888,-2.1054342 5.1653017,-1.1737799 4.8115219,-1.527556 Z"
       fill="none"
       shaper:cutDepth="0"
       shaper:pathType="guide"
       stroke="#646464"
       transform="matrix(1,0,0,-1,17.71282,24.885025)"
       vector-effect="non-scaling-stroke"
       id="path1891"
       style="stroke:#ff0000;stroke-opacity:1" /><path
       d="M 1.4098376,2.5817195 2.0922756,3.2640905 1.7384995,3.6178665 1.0560579,2.9354639 0.7023171,2.5816842 1.6436904,1.6403144 1.9974313,1.9940905 Z"
       fill="none"
       shaper:cutDepth="0"
       shaper:pathType="guide"
       stroke="#646464"
       transform="matrix(1,0,0,-1,17.71282,24.885025)"
       vector-effect="non-scaling-stroke"
       id="path1893"
       style="stroke:#ff0000;stroke-opacity:1" /><path
       d="M 5.743215,7.6225821 4.8115219,6.6909278 5.1653017,6.3371834 6.0969912,7.268806 Z"
       fill="none"
       shaper:cutDepth="0"
       shaper:pathType="guide"
       stroke="#646464"
       transform="matrix(1,0,0,-1,17.71282,24.885025)"
       vector-effect="non-scaling-stroke"
       id="path1905"
       style="stroke:#ff0000;stroke-opacity:1" /><path
       d="M 4.1600895,5.3319044 3.8063134,5.6856805 2.7437433,4.6231456 3.0975194,4.2694048 Z"
       fill="none"
       shaper:cutDepth="0"
       shaper:pathType="guide"
       stroke="#646464"
       transform="matrix(1,0,0,-1,17.71282,24.885025)"
       vector-effect="non-scaling-stroke"
       id="path1915"
       style="stroke:#ff0000;stroke-opacity:1" /></g></svg>
